<?xml version="1.0" standalone="no"?>
<!DOCTYPE svg PUBLIC "-//W3C//DTD SVG 20010904//EN"
 "http://www.w3.org/TR/2001/REC-SVG-20010904/DTD/svg10.dtd">
<svg version="1.0" xmlns="http://www.w3.org/2000/svg"
 width="1800.000000pt" height="1800.000000pt" viewBox="0 0 1800.000000 1800.000000"
 preserveAspectRatio="xMidYMid meet">
<metadata>
Created by potrace 1.14, written by Peter Selinger 2001-2017
</metadata>
<g transform="translate(0.000000,1800.000000) scale(0.100000,-0.100000)"
fill="#000000" stroke="none">
<path d="M4250 12721 l0 -111 193 -1 c267 -2 285 -3 432 -41 168 -43 348 -165
408 -276 71 -131 109 -323 124 -627 9 -181 9 -5582 0 -5780 -3 -82 -11 -184
-17 -225 -6 -41 -13 -93 -16 -115 -9 -74 -45 -189 -75 -245 -99 -185 -302
-311 -554 -345 -92 -12 -119 -13 -307 -14 l-188 -1 0 -110 0 -111 2038 4
c1120 2 2057 6 2082 10 25 3 83 8 130 11 47 4 103 8 125 11 22 2 60 7 85 10
72 8 133 15 165 19 125 18 187 27 230 36 28 5 62 12 78 14 15 3 35 7 45 10 9
3 33 7 52 10 82 12 398 98 553 150 248 83 513 201 735 326 92 52 371 241 372
251 0 4 -19 10 -42 14 -45 8 -56 11 -60 15 -2 1 -10 3 -18 5 -8 2 -26 7 -40
10 -14 4 -31 7 -37 7 -7 1 -13 5 -13 10 0 4 -3 7 -7 6 -11 -3 -86 23 -100 34
-7 5 -17 7 -23 3 -5 -3 -10 -2 -10 3 0 9 -37 25 -52 23 -5 -1 -8 3 -8 9 0 5
-9 10 -20 10 -11 0 -20 4 -20 8 0 5 -16 14 -35 22 -19 8 -35 18 -35 22 0 5 -4
7 -9 4 -5 -3 -14 1 -21 9 -7 8 -19 15 -26 15 -8 0 -14 5 -14 10 0 6 -7 10 -15
10 -8 0 -15 5 -15 10 0 6 -7 10 -15 10 -8 0 -15 5 -15 10 0 6 -7 10 -15 10 -9
0 -18 6 -21 14 -3 8 -19 20 -35 26 -16 7 -29 18 -29 26 0 7 -8 15 -17 19 -24
8 -78 58 -86 80 -8 18 -8 18 -132 -98 -126 -119 -323 -266 -496 -370 -273
-164 -546 -273 -870 -345 -117 -27 -172 -36 -331 -57 -200 -27 -650 -27 -853
0 -16 2 -57 7 -90 11 -71 8 -71 8 -205 28 -58 9 -116 18 -130 21 -14 3 -41 8
-60 11 -48 7 -321 63 -341 69 -14 5 -16 316 -16 3453 l0 3449 71 17 c39 9 82
19 96 22 14 3 63 14 110 24 47 10 99 21 115 23 17 3 71 12 120 21 88 15 109
18 210 32 269 37 682 40 955 8 105 -12 302 -48 395 -71 55 -14 107 -26 115
-28 8 -2 53 -15 100 -30 321 -103 618 -256 879 -454 62 -47 119 -90 126 -95 8
-6 25 -3 49 8 55 26 116 46 116 38 0 -4 5 1 11 11 6 9 15 15 20 11 5 -3 15 -2
22 3 7 5 19 9 27 8 8 -1 27 4 41 11 15 7 29 11 32 8 3 -3 15 -1 26 5 11 7 37
12 56 13 19 1 35 4 35 8 0 3 10 6 23 7 87 4 157 12 168 19 8 5 10 3 4 -7 -7
-11 -6 -12 6 -4 25 18 321 4 345 -16 10 -8 14 -8 14 -1 0 7 9 8 28 2 15 -4 55
-14 90 -21 34 -7 62 -16 62 -19 0 -3 8 -7 18 -8 9 -1 26 -3 37 -5 27 -4 167
-58 179 -69 6 -4 18 -8 28 -8 10 0 18 -4 18 -10 0 -5 9 -10 20 -10 11 0 20 -4
20 -10 0 -5 9 -10 20 -10 11 0 20 -3 20 -7 0 -5 12 -14 27 -21 21 -9 15 1 -27
45 -240 249 -432 409 -665 552 -55 34 -107 66 -115 71 -61 38 -339 167 -450
208 -317 118 -772 224 -1151 268 -24 3 -55 7 -69 9 -14 3 -54 7 -90 11 -36 3
-78 8 -95 10 -16 2 -66 6 -110 9 -44 3 -98 8 -120 10 -22 3 -87 7 -145 10 -58
4 -130 9 -160 12 -30 3 -936 8 -2012 10 l-1958 4 0 -110z m1790 -3961 l0
-3320 -100 0 -100 0 0 3320 0 3320 100 0 100 0 0 -3320z"/>
<path d="M10196 11629 c3 -10 0 -20 -6 -24 -6 -3 -9 -1 -8 5 5 23 -33 19 -42
-3 -5 -12 -9 -17 -9 -11 -1 17 -29 25 -37 12 -5 -7 -2 -8 6 -3 9 6 11 4 5 -5
-6 -10 -11 -9 -22 5 -12 17 -13 17 -13 2 0 -9 -5 -17 -11 -17 -5 0 -8 4 -5 8
3 5 -1 9 -9 9 -8 0 -12 -3 -10 -7 2 -3 -6 -12 -18 -20 -21 -12 -21 -12 -7 6
15 18 14 18 -13 0 -29 -18 -29 -18 -22 4 l7 22 -21 -21 c-12 -12 -30 -21 -42
-21 -13 0 -18 -4 -13 -12 4 -6 3 -8 -4 -4 -6 3 -13 2 -16 -3 -3 -5 -15 -7 -26
-4 -11 3 -18 9 -15 12 2 4 -2 8 -10 8 -11 0 -12 -4 -4 -13 7 -8 7 -14 -1 -19
-5 -3 -10 0 -10 7 -1 9 -5 7 -14 -4 -14 -19 -32 -25 -21 -8 3 6 1 10 -4 10 -6
0 -11 -8 -11 -17 0 -15 -2 -16 -10 -3 -8 13 -10 12 -10 -2 0 -10 -4 -18 -10
-18 -5 0 -7 8 -4 18 5 15 4 15 -8 1 -7 -9 -19 -14 -27 -11 -8 3 -11 0 -7 -7 5
-7 1 -9 -10 -4 -12 5 -15 3 -9 -6 6 -10 3 -11 -11 -3 -14 8 -25 6 -41 -8 -12
-10 -19 -21 -15 -25 4 -5 2 -5 -5 -1 -7 4 -21 -2 -33 -14 -11 -11 -20 -17 -20
-13 0 3 -8 -1 -17 -9 -10 -8 -49 -30 -88 -49 -38 -19 -72 -37 -75 -40 -6 -7
-90 -54 -105 -59 -42 -12 -65 -23 -65 -31 0 -5 -7 -9 -15 -9 -7 0 -19 -8 -24
-17 -6 -10 -11 -14 -11 -9 0 5 -6 4 -12 -2 -25 -20 -89 -52 -104 -52 -8 0 -13
-3 -11 -7 6 -10 -19 -34 -27 -26 -3 4 -6 -1 -6 -9 0 -11 -7 -15 -22 -12 -13 2
-17 2 -10 -2 18 -8 15 -27 -3 -20 -9 3 -18 -1 -22 -10 -3 -9 -12 -13 -21 -9
-13 5 -13 3 -1 -12 7 -10 10 -15 5 -11 -8 7 -53 -32 -49 -43 1 -4 -5 -6 -15
-5 -10 0 -16 -5 -14 -13 3 -12 0 -12 -12 -2 -13 11 -15 10 -11 -8 2 -14 -1
-18 -11 -14 -9 3 -14 -2 -14 -17 0 -18 -3 -20 -14 -11 -12 10 -13 8 -9 -10 4
-15 3 -20 -5 -15 -7 4 -12 1 -12 -8 0 -10 -6 -13 -17 -9 -11 4 -14 3 -9 -5 4
-7 2 -12 -4 -12 -6 0 -8 -5 -4 -12 5 -8 2 -8 -10 1 -9 8 -16 10 -15 5 5 -27
-2 -46 -15 -41 -11 4 -13 1 -9 -10 5 -12 3 -14 -7 -8 -10 6 -12 4 -7 -9 6 -14
3 -17 -10 -12 -10 4 -14 4 -11 0 4 -4 -4 -15 -17 -26 -14 -11 -25 -24 -25 -30
0 -6 9 0 21 13 19 23 20 23 10 2 -8 -16 -8 -24 1 -30 19 -11 39 -13 32 -2 -3
5 -10 7 -15 4 -5 -4 -9 -1 -9 4 0 14 10 14 42 -3 22 -11 26 -12 22 -1 -6 14
19 15 32 2 11 -11 26 -8 18 4 -3 6 8 4 24 -5 36 -19 42 -20 42 -5 0 5 -4 8 -9
4 -5 -3 -12 -2 -15 3 -2 4 8 8 24 7 15 0 26 -3 24 -6 -2 -4 3 -9 11 -12 9 -4
12 -1 9 8 -6 14 19 15 32 2 12 -12 26 -8 17 6 -4 6 6 4 21 -7 20 -13 27 -14
24 -5 -4 11 5 14 37 14 24 0 41 -3 38 -7 -2 -5 3 -8 12 -8 10 0 13 5 9 12 -5
7 -3 8 7 3 7 -5 26 -8 42 -7 16 2 36 -3 45 -10 13 -11 15 -10 10 2 -4 11 0 16
12 16 10 0 17 -3 14 -7 -2 -4 3 -9 11 -12 9 -4 12 -1 9 7 -4 9 4 11 27 8 27
-4 31 -2 26 12 -4 9 -3 15 2 11 12 -7 41 5 41 17 0 5 -5 6 -12 2 -7 -4 -8 -3
-4 5 5 8 12 9 20 2 8 -7 17 -6 26 1 13 8 13 9 -1 5 -9 -3 -16 1 -16 8 0 7 6
11 14 8 7 -3 25 2 39 12 14 9 32 14 40 11 9 -3 12 -1 9 4 -3 6 1 10 10 10 9 0
14 -4 11 -9 -3 -4 6 -6 21 -3 18 3 24 1 19 -7 -10 -15 7 -14 23 2 11 10 13 10
7 0 -6 -12 5 -18 27 -14 4 0 7 -4 7 -10 0 -8 5 -7 15 1 9 7 18 10 22 6 3 -3 2
-6 -4 -6 -5 0 -10 -7 -10 -15 0 -11 4 -12 13 -4 9 8 12 4 10 -15 -2 -17 1 -23
10 -19 15 6 39 -43 43 -89 1 -5 8 -8 16 -8 20 0 19 -19 -1 -27 -11 -4 -12 -8
-4 -13 9 -6 8 -14 -4 -32 -9 -14 -13 -27 -10 -31 4 -4 -6 -11 -21 -17 -24 -9
-26 -12 -14 -28 7 -9 10 -14 6 -11 -9 7 -55 -32 -50 -42 1 -3 -8 -4 -21 -2
-13 3 -27 0 -30 -6 -4 -6 -12 -11 -17 -11 -6 0 -7 5 -3 12 5 7 3 8 -5 4 -7 -5
-10 -14 -7 -22 3 -7 1 -16 -5 -19 -5 -4 -8 -1 -7 6 2 6 -3 14 -10 16 -8 3 -10
-1 -5 -13 5 -13 3 -15 -8 -9 -12 8 -12 6 0 -8 12 -15 12 -17 -4 -11 -15 6 -17
3 -13 -13 5 -20 -7 -36 -48 -63 -18 -11 -18 -11 1 -6 19 6 19 6 1 -9 -12 -9
-17 -21 -13 -35 4 -17 3 -19 -8 -10 -10 8 -13 7 -11 -7 0 -10 6 -21 11 -25 9
-7 -15 -12 -40 -9 -5 1 -1 -6 9 -14 17 -13 17 -15 3 -15 -10 0 -14 -5 -11 -15
4 -10 0 -13 -15 -10 -15 3 -18 0 -14 -12 4 -10 2 -14 -4 -10 -13 8 -12 -11 1
-31 7 -11 4 -12 -13 -3 -23 13 -28 2 -9 -17 9 -9 8 -12 -5 -12 -13 0 -16 -6
-13 -26 3 -16 0 -27 -10 -31 -8 -3 -13 -12 -10 -20 4 -8 -4 -17 -19 -23 -31
-12 -48 -43 -32 -59 9 -10 8 -12 -8 -9 -12 2 -19 -2 -18 -9 2 -7 -7 -17 -18
-24 -15 -8 -19 -8 -15 0 5 7 1 9 -8 5 -9 -3 -13 -11 -10 -16 4 -6 -5 -2 -20 7
-14 10 -26 13 -26 7 0 -5 -7 -13 -16 -16 -13 -5 -14 -4 -6 7 9 10 6 13 -16 11
-15 -1 -36 -6 -46 -10 -14 -5 -17 -4 -12 4 4 7 2 12 -3 12 -6 0 -11 -4 -11
-10 0 -5 -7 -6 -17 -3 -11 4 -14 3 -9 -6 6 -10 4 -10 -12 0 -17 11 -24 10 -38
-2 -16 -12 -17 -12 -11 3 5 15 2 16 -19 8 -17 -7 -23 -7 -19 0 3 6 1 10 -4 10
-6 0 -11 -7 -11 -16 0 -8 -5 -12 -10 -9 -6 4 -8 11 -5 16 4 5 -3 5 -17 0 -15
-5 -31 -5 -41 0 -11 7 -17 6 -17 -1 0 -5 -5 -10 -11 -10 -5 0 -7 6 -3 13 5 7
0 6 -11 -3 -11 -9 -16 -10 -11 -2 4 6 2 12 -3 12 -6 0 -11 -4 -11 -8 0 -12
-40 -9 -40 3 0 5 -5 2 -11 -8 -7 -12 -15 -15 -22 -9 -7 5 -33 9 -58 9 -26 0
-51 3 -58 7 -6 4 -11 2 -11 -5 0 -8 -4 -8 -12 -1 -7 5 -22 6 -33 2 -11 -4 -26
-5 -34 -2 -9 3 -12 1 -7 -6 5 -8 2 -10 -8 -6 -9 3 -14 9 -12 13 3 4 -4 7 -15
7 -10 0 -19 -7 -19 -16 0 -13 -2 -13 -10 0 -5 8 -12 11 -16 8 -4 -4 -15 -3
-25 3 -15 8 -19 6 -19 -8 0 -15 -2 -15 -15 3 -9 12 -14 14 -15 6 0 -7 -5 -10
-11 -6 -6 4 -31 7 -54 8 -34 1 -42 -2 -38 -14 3 -10 -1 -8 -11 4 -12 15 -16
16 -16 5 0 -12 -2 -12 -10 1 -8 12 -10 12 -10 1 0 -8 -3 -11 -7 -8 -3 4 -13 1
-21 -6 -13 -10 -14 -9 -7 2 6 11 2 13 -19 7 -18 -4 -25 -3 -21 4 3 5 1 10 -4
10 -6 0 -11 -4 -11 -10 0 -5 -7 -6 -17 -3 -12 5 -14 3 -8 -7 6 -10 4 -11 -6
-4 -8 5 -17 9 -21 9 -3 0 -10 4 -15 9 -5 5 -2 6 6 1 10 -6 12 -4 7 4 -4 6 -17
9 -29 6 -12 -2 -16 -2 -9 1 17 8 15 21 -4 28 -8 3 -12 2 -9 -4 3 -6 1 -10 -4
-10 -6 0 -11 10 -11 22 0 21 0 21 -15 2 -14 -19 -14 -19 -9 2 4 14 0 21 -10
22 -9 1 -23 3 -31 4 -8 1 -15 5 -15 9 0 3 -9 9 -20 12 -11 3 -20 1 -20 -5 0
-5 -5 -6 -10 -3 -6 4 -8 12 -4 18 3 7 -2 3 -10 -7 -12 -15 -16 -16 -16 -5 0
12 -2 12 -10 -1 -9 -13 -10 -13 -11 0 0 10 -3 8 -9 -5 -6 -14 -9 -15 -10 -5 0
10 -6 6 -16 -10 -8 -14 -13 -18 -10 -8 3 10 -1 15 -9 14 -19 -3 -45 -26 -45
-41 0 -20 -25 -36 -37 -24 -7 7 -14 4 -24 -7 -8 -10 -9 -15 -2 -11 6 4 14 3
18 -3 3 -5 -1 -10 -10 -10 -10 0 -13 -5 -9 -12 5 -8 1 -9 -12 -4 -15 6 -16 5
-7 -5 15 -15 -2 -53 -19 -43 -7 4 -8 3 -4 -5 4 -6 12 -9 17 -6 16 11 10 -7 -8
-22 -12 -8 -13 -12 -4 -11 7 2 16 -3 19 -11 3 -10 0 -12 -14 -8 -17 6 -18 6
-2 -6 15 -12 15 -14 0 -25 -9 -7 -12 -10 -6 -7 7 2 14 -2 17 -9 3 -8 1 -17 -6
-20 -9 -3 -9 -5 1 -5 6 -1 12 -6 12 -12 0 -6 8 -18 18 -27 10 -10 13 -13 6 -9
-7 5 -15 3 -20 -4 -4 -7 -3 -10 2 -7 12 8 35 -18 26 -28 -4 -5 1 -2 11 6 10 7
17 9 16 4 -4 -23 3 -34 21 -34 11 0 20 -5 20 -11 0 -5 -6 -7 -12 -3 -7 4 -10
3 -5 -1 4 -5 18 -10 30 -12 12 -2 23 -8 25 -13 2 -5 19 -6 38 -3 21 4 40 1 51
-8 11 -9 14 -10 9 -1 -4 6 -3 12 1 12 5 0 15 -6 22 -12 10 -11 11 -10 5 5 -5
13 -2 16 10 11 9 -3 13 -11 9 -18 -4 -7 -1 -7 9 1 8 7 18 10 22 6 4 -4 4 1 0
11 -6 16 -4 18 15 13 18 -4 20 -3 11 8 -9 11 -6 13 14 11 19 -2 24 1 21 16 -2
10 0 16 6 12 6 -3 20 5 32 18 20 22 55 28 42 8 -3 -5 3 -7 12 -5 10 2 22 4 26
4 5 1 5 6 1 12 -5 8 -1 8 14 0 28 -15 32 -14 25 7 -5 14 -3 14 11 -3 10 -11
14 -14 11 -7 -6 11 -3 12 12 3 11 -6 23 -7 27 -4 3 3 6 -3 6 -15 0 -12 -5 -22
-12 -22 -6 0 -3 -7 8 -15 11 -8 14 -14 6 -15 -9 0 -10 -5 -2 -19 8 -16 6 -22
-7 -30 -13 -8 -14 -10 -4 -11 11 0 9 -4 -5 -15 -18 -14 -18 -15 0 -9 17 6 17
5 6 -17 -10 -17 -10 -24 -1 -27 6 -2 11 -8 11 -13 0 -6 -4 -8 -8 -5 -4 2 -8
-4 -8 -14 0 -10 4 -17 7 -14 4 2 11 -1 15 -7 5 -8 3 -9 -6 -4 -10 6 -12 4 -6
-10 6 -16 4 -16 -10 -4 -16 13 -16 12 -5 -9 12 -22 11 -23 -9 -17 l-22 7 21
-21 c24 -24 35 -27 26 -8 -4 6 -1 5 7 -3 7 -8 24 -16 38 -18 19 -2 22 0 10 8
-13 8 -13 10 2 10 9 0 20 -4 23 -10 8 -13 25 -13 25 1 0 5 -5 7 -12 3 -7 -4
-8 -3 -4 5 6 8 12 9 20 2 9 -7 16 -7 25 2 10 9 11 8 5 -7 -7 -18 -6 -18 22 0
26 17 27 17 15 1 -7 -9 -10 -17 -7 -17 4 0 19 8 34 17 26 17 27 17 12 -2 -16
-20 -19 -20 34 1 12 4 17 4 13 -2 -8 -14 39 -10 57 5 12 10 16 9 25 -6 6 -10
11 -12 11 -5 0 6 5 12 11 12 5 0 7 -6 3 -12 -6 -10 -4 -10 7 0 7 6 17 12 22
12 4 0 5 -6 1 -12 -5 -9 -2 -9 9 1 9 7 17 9 17 3 0 -5 15 -8 33 -6 72 9 126
11 122 5 -7 -12 43 -5 59 8 12 10 16 9 25 -6 6 -10 11 -12 11 -5 0 6 5 12 11
12 5 0 7 -6 3 -12 -6 -10 -4 -10 7 0 7 6 17 12 22 12 4 0 5 -6 1 -12 -5 -9 -2
-9 9 1 9 7 17 9 17 3 0 -5 15 -8 33 -5 17 2 53 4 79 5 26 1 45 5 42 10 -3 4 2
5 10 2 9 -3 13 -11 9 -18 -3 -6 -1 -6 8 2 15 14 33 17 25 4 -3 -5 1 -9 9 -9 8
0 12 4 9 9 -3 4 2 8 11 8 9 0 14 -4 10 -9 -3 -5 0 -13 6 -17 8 -4 9 -3 5 4 -4
7 -2 12 4 12 6 0 8 5 4 13 -6 9 -3 8 8 -1 19 -16 120 -23 111 -8 -4 5 0 7 9 4
11 -5 14 1 13 23 -2 26 5 33 27 31 3 -1 9 5 12 14 3 8 2 12 -4 9 -17 -11 -11
5 11 28 12 12 18 16 14 8 -6 -10 -4 -12 4 -7 9 6 9 11 1 21 -13 16 13 40 32
29 10 -6 9 -3 -1 9 -10 13 -10 17 -1 17 7 0 10 7 6 16 -5 14 -4 15 8 5 12 -10
13 -9 9 8 -3 12 -10 21 -16 21 -5 0 5 15 24 34 19 18 33 39 31 46 -3 7 0 10 7
6 6 -4 11 -2 11 4 0 6 4 9 8 6 5 -3 9 1 9 9 0 8 -3 12 -7 10 -3 -2 -7 5 -7 16
-1 10 3 19 8 19 6 0 7 -5 3 -11 -4 -7 -1 -10 7 -7 8 3 13 11 11 17 -1 6 3 11
8 11 7 0 7 7 -1 21 -9 17 -8 20 2 14 9 -6 11 -3 6 9 -4 9 -3 15 2 12 5 -3 11
4 14 15 4 14 10 18 19 13 9 -5 8 -2 -2 11 -9 11 -10 16 -2 11 7 -4 12 -2 12 4
0 6 5 8 13 4 7 -5 6 0 -3 11 -14 17 -14 18 6 7 16 -9 21 -8 21 3 0 8 -5 11
-11 8 -6 -4 -5 0 1 9 7 8 10 18 6 22 -4 4 0 4 10 0 13 -5 16 -2 10 12 -4 10
-2 15 4 11 13 -8 13 26 -1 36 -7 5 -3 6 8 3 14 -5 17 -2 12 10 -5 14 -4 15 8
5 11 -9 16 -9 22 0 4 7 3 9 -4 5 -22 -13 -18 20 5 37 13 10 21 23 18 28 -4 5
-1 9 5 9 6 0 9 4 5 9 -3 5 -1 12 5 16 6 4 7 12 4 18 -4 7 -3 9 1 4 5 -4 20 3
34 15 14 13 20 16 13 7 -10 -13 -10 -18 0 -21 22 -8 81 0 88 12 5 8 9 7 13 -4
7 -17 59 -12 66 6 2 6 10 0 18 -13 8 -13 12 -17 10 -8 -3 10 2 15 18 15 13 0
22 -3 19 -7 -2 -4 1 -11 7 -15 8 -5 9 -3 4 6 -6 10 -4 12 7 7 9 -3 21 0 28 6
10 9 11 9 6 0 -3 -6 -2 -15 4 -18 6 -4 9 -2 8 3 -2 6 1 10 6 10 5 0 13 6 17
14 7 10 9 9 9 -3 0 -9 7 -20 16 -23 25 -10 29 -7 9 7 -11 9 -14 16 -7 21 6 3
17 -1 25 -9 17 -17 31 -20 22 -6 -3 5 0 13 6 17 7 4 9 3 5 -4 -3 -6 -2 -13 4
-17 5 -3 10 2 10 12 0 15 2 15 10 3 6 -9 5 -20 -3 -30 -11 -13 -10 -13 5 -1
10 7 15 17 12 22 -3 5 0 9 5 9 6 0 11 -4 11 -9 0 -5 7 -12 16 -15 14 -5 15 -4
4 9 -11 13 -10 14 5 9 14 -6 16 -4 10 6 -5 9 -4 11 4 6 6 -4 8 -13 4 -19 -4
-7 2 -5 12 3 10 8 16 10 12 3 -4 -6 -3 -15 3 -18 6 -4 9 -3 8 2 -2 4 1 9 6 10
5 1 13 7 17 15 7 10 9 9 9 -3 0 -9 7 -20 16 -23 25 -10 29 -7 9 7 -11 9 -14
16 -7 21 6 3 17 -1 25 -9 17 -17 31 -20 22 -6 -3 5 0 13 6 17 7 4 9 3 5 -4 -3
-6 -2 -13 4 -17 5 -3 10 2 10 12 0 15 2 15 10 3 6 -9 5 -20 -3 -30 -11 -13
-10 -13 5 -1 10 7 15 17 12 22 -3 5 0 9 5 9 6 0 11 -4 11 -9 0 -5 7 -12 16
-15 14 -5 15 -4 4 9 -11 13 -10 14 5 9 14 -6 16 -4 10 6 -5 9 -4 11 4 6 6 -4
8 -13 4 -19 -4 -7 2 -5 12 3 10 8 16 10 12 3 -4 -6 -3 -15 3 -18 6 -4 9 -2 8
3 -2 6 1 10 6 10 5 0 13 6 17 14 7 10 9 9 9 -3 0 -9 7 -20 16 -23 25 -10 29
-7 9 7 -12 9 -14 16 -7 21 6 3 21 -4 33 -16 12 -13 20 -18 17 -13 -3 6 0 15 7
22 10 10 14 9 19 -2 6 -16 59 -10 65 7 2 6 10 0 18 -13 8 -13 12 -17 9 -7 -4
13 1 15 25 11 19 -3 29 0 29 9 0 8 4 7 10 -4 11 -18 62 -15 69 4 2 6 10 0 18
-13 8 -13 12 -17 10 -8 -3 10 2 15 18 15 13 0 22 -3 19 -7 -2 -4 1 -11 7 -15
8 -5 9 -3 4 6 -6 10 -4 12 7 7 9 -3 21 0 28 6 10 9 11 9 6 0 -3 -6 -2 -15 4
-18 6 -4 9 -3 8 2 -2 4 1 9 6 10 5 1 13 7 17 15 7 10 9 9 9 -3 0 -9 7 -20 16
-23 25 -10 29 -7 9 7 -11 9 -14 16 -7 21 6 3 17 -1 25 -9 17 -17 31 -20 22 -6
-3 5 0 13 6 17 7 4 9 3 5 -4 -3 -6 -2 -13 4 -17 5 -3 10 2 10 12 0 15 2 15 10
3 6 -9 5 -20 -3 -30 -11 -13 -10 -13 5 -1 10 7 15 17 12 22 -3 5 0 9 5 9 6 0
11 -4 11 -9 0 -5 7 -12 16 -15 14 -5 15 -4 4 9 -11 13 -10 14 5 9 14 -6 16 -4
10 6 -5 9 -4 11 4 6 6 -4 8 -13 4 -19 -4 -7 2 -5 12 3 10 8 16 10 12 3 -4 -6
-3 -15 3 -18 6 -4 9 -3 8 2 -2 4 2 8 7 8 6 0 9 -4 7 -10 -2 -5 2 -5 9 2 8 8
18 9 31 2 22 -12 23 -6 2 15 -8 9 -11 16 -5 16 5 0 16 -6 24 -14 11 -12 15
-11 25 5 7 11 20 16 32 14 18 -3 19 -1 9 17 -8 15 -8 19 0 14 6 -4 11 -1 11 6
0 9 3 9 10 -2 8 -13 10 -12 10 3 0 9 8 17 18 17 14 0 15 2 2 10 -8 5 -10 10
-4 10 5 0 16 -6 23 -12 11 -11 13 -10 8 3 -3 9 0 16 9 16 8 0 14 -7 14 -14 0
-8 5 -11 10 -8 6 4 7 11 4 17 -4 6 -1 8 7 6 8 -3 13 -12 11 -19 -2 -9 4 -7 17
5 14 13 21 15 21 6 0 -10 3 -10 15 0 13 11 19 7 17 -11 -1 -4 8 -5 19 -2 15 4
29 -4 51 -28 17 -19 27 -28 24 -21 -4 6 -3 12 3 12 6 0 15 -18 21 -40 6 -21
17 -46 26 -55 8 -8 11 -15 6 -15 -18 0 -21 -29 -6 -45 9 -8 11 -15 6 -15 -6 0
-12 -7 -15 -14 -4 -11 -1 -13 11 -10 14 5 15 4 2 -5 -8 -6 -11 -11 -6 -11 6 0
0 -9 -13 -21 -12 -12 -20 -27 -17 -35 3 -8 -1 -14 -9 -14 -8 0 -15 -4 -15 -10
0 -5 -7 -10 -15 -10 -7 0 -19 -8 -24 -17 -7 -12 -10 -14 -11 -4 0 11 -3 11
-15 1 -9 -7 -14 -19 -11 -27 5 -11 1 -11 -16 1 -20 14 -24 14 -40 -1 -17 -15
-18 -15 -18 2 0 18 0 18 -14 0 -13 -18 -14 -18 -24 2 -6 11 -9 22 -7 25 2 2
-5 4 -15 4 -11 0 -20 -5 -20 -11 0 -5 -5 -2 -11 8 -5 9 -16 17 -22 17 -18 0
-44 34 -39 50 4 13 3 13 -10 2 -13 -10 -18 -10 -24 -1 -5 8 -3 10 7 4 8 -5 11
-4 6 0 -14 16 -47 12 -47 -4 -1 -14 -2 -13 -11 2 -8 13 -14 15 -29 7 -22 -12
-33 -13 -27 -2 3 4 -12 7 -34 7 -21 0 -39 -3 -39 -7 0 -5 -5 -8 -11 -8 -5 0
-7 4 -4 10 4 6 -2 7 -18 1 -16 -6 -28 -6 -36 2 -8 8 -11 8 -11 -1 0 -6 -7 -9
-17 -5 -11 5 -14 3 -8 -6 4 -8 -4 -6 -19 4 -18 12 -26 14 -26 5 0 -9 -4 -9
-17 1 -15 12 -16 12 -9 -5 6 -19 6 -19 -11 -3 -13 11 -23 13 -33 7 -20 -13
-33 -13 -25 0 3 6 1 10 -4 10 -6 0 -11 -4 -11 -10 0 -5 -7 -6 -17 -3 -11 4
-14 3 -9 -6 6 -10 4 -10 -12 0 -17 11 -24 10 -38 -2 -16 -12 -17 -12 -11 3 5
15 2 16 -19 8 -17 -7 -23 -7 -19 0 3 6 1 10 -4 10 -6 0 -11 -7 -11 -16 0 -8
-5 -12 -10 -9 -6 4 -8 11 -5 16 4 5 -3 5 -17 0 -15 -5 -31 -5 -41 0 -11 7 -17
6 -17 -1 0 -5 -5 -10 -11 -10 -5 0 -7 6 -3 13 5 7 0 6 -11 -3 -11 -9 -16 -10
-11 -2 4 6 2 12 -3 12 -6 0 -11 -4 -11 -8 0 -12 -40 -9 -40 3 0 5 -5 2 -11 -8
-7 -12 -15 -15 -22 -9 -7 5 -33 9 -58 9 -26 0 -51 3 -58 7 -6 4 -11 2 -11 -5
0 -8 -4 -8 -12 -1 -7 5 -22 6 -33 2 -11 -4 -26 -5 -34 -2 -9 3 -12 1 -7 -6 5
-8 2 -10 -8 -6 -9 3 -14 9 -12 13 3 4 -4 7 -15 7 -10 0 -19 -7 -19 -16 0 -13
-2 -13 -10 0 -5 8 -12 11 -16 8 -4 -4 -15 -3 -25 3 -15 8 -19 6 -19 -8 0 -15
-2 -15 -15 3 -9 12 -14 14 -15 6 0 -7 -5 -10 -11 -6 -6 4 -31 7 -54 8 -34 1
-42 -2 -38 -14 3 -10 -1 -8 -11 4 -12 15 -16 16 -16 5 0 -12 -2 -12 -10 1 -8
12 -10 12 -10 1 0 -8 -3 -11 -7 -8 -3 4 -13 1 -21 -6 -13 -10 -14 -9 -7 2 6
11 2 13 -19 7 -18 -4 -25 -3 -21 4 3 5 1 10 -4 10 -6 0 -11 -4 -11 -10 0 -5
-7 -7 -15 -4 -9 4 -15 0 -15 -7 0 -12 -2 -12 -9 0 -6 9 -16 11 -32 5 -13 -4
-29 -7 -36 -6 -7 2 -10 -6 -8 -17 2 -14 -1 -18 -11 -14 -8 3 -14 -1 -14 -9 0
-8 -7 -23 -16 -34 -8 -10 -12 -13 -8 -5 5 10 3 12 -5 7 -9 -6 -9 -11 1 -24 11
-13 10 -15 -5 -9 -13 5 -17 2 -15 -11 2 -9 -2 -16 -9 -15 -8 2 -10 -4 -6 -14
4 -10 2 -14 -4 -10 -6 4 -13 0 -16 -8 -4 -10 -1 -12 11 -9 16 5 16 5 0 -9 -14
-11 -15 -16 -5 -26 9 -10 8 -11 -7 -5 -13 5 -17 4 -12 -4 4 -8 0 -12 -11 -12
-14 0 -15 -2 -4 -9 9 -6 10 -10 2 -12 -7 -3 -13 -14 -14 -26 0 -12 -5 -19 -11
-16 -17 11 -36 -28 -25 -50 8 -14 8 -18 0 -13 -6 4 -11 2 -11 -4 0 -6 -5 -8
-12 -4 -8 5 -8 2 1 -10 8 -9 10 -16 5 -15 -21 4 -24 -2 -13 -22 7 -13 7 -19 1
-15 -6 3 -14 1 -17 -5 -4 -5 -14 -8 -22 -4 -13 4 -14 3 -3 -10 7 -8 9 -15 4
-15 -5 0 -2 -5 6 -11 12 -9 11 -10 -8 -6 -14 3 -20 1 -15 -5 3 -6 -3 -17 -13
-25 -10 -8 -18 -17 -18 -21 1 -4 -2 -6 -6 -5 -4 1 -11 -4 -14 -13 -4 -10 -1
-13 7 -9 6 4 1 -2 -12 -13 -18 -14 -21 -21 -11 -27 9 -6 11 -4 5 5 -6 9 -4 11
5 5 10 -6 9 -11 -5 -21 -10 -7 -22 -11 -26 -8 -16 9 -10 -3 8 -17 14 -12 16
-12 8 0 -5 10 -4 12 4 7 6 -4 9 -12 5 -17 -3 -5 -9 -7 -13 -4 -5 2 -17 -5 -27
-16 -14 -16 -15 -22 -5 -28 9 -6 7 -10 -9 -14 -12 -3 -20 -11 -18 -19 3 -7 -7
-19 -21 -26 -14 -7 -18 -10 -8 -7 13 3 16 1 10 -8 -4 -6 -8 -15 -8 -19 0 -3
-4 -10 -8 -15 -5 -4 -8 -3 -7 2 5 21 -1 29 -10 15 -6 -10 -10 -11 -10 -2 0 6
-5 12 -11 12 -5 0 -7 -4 -4 -10 3 -5 -1 -10 -10 -10 -10 0 -13 5 -9 13 5 8 2
8 -9 -2 -11 -9 -17 -10 -17 -2 0 6 -5 11 -11 11 -5 0 -8 -4 -4 -9 3 -5 1 -13
-5 -16 -6 -4 -9 -3 -8 2 2 4 -1 8 -7 8 -5 0 -9 -4 -7 -10 1 -5 -4 -2 -12 8 -9
12 -16 14 -21 8 -3 -6 -11 -11 -16 -11 -6 0 -8 4 -5 8 3 5 -12 8 -32 7 -26 -1
-36 -6 -34 -16 1 -9 -2 -8 -12 4 -9 12 -16 14 -21 7 -3 -5 -11 -8 -16 -5 -15
10 -79 13 -73 4 3 -5 1 -9 -4 -9 -6 0 -13 7 -16 16 -4 12 -10 13 -19 6 -6 -6
-27 -9 -45 -8 -18 1 -35 -1 -38 -6 -3 -4 -10 -8 -15 -8 -6 0 -7 5 -4 11 4 6
-2 5 -13 -2 -18 -11 -24 -10 -44 6 -17 16 -20 16 -9 3 8 -11 9 -18 3 -18 -6 0
-14 5 -17 10 -5 8 -11 8 -19 1 -7 -6 -16 -8 -20 -4 -10 10 -37 13 -31 3 3 -4
-2 -11 -11 -14 -8 -3 -12 -2 -9 3 3 5 1 12 -5 16 -5 3 -10 0 -10 -7 0 -8 -5
-6 -11 5 -7 12 -14 15 -22 8 -7 -5 -27 -8 -45 -7 -18 1 -35 -1 -38 -6 -3 -4
-10 -8 -15 -8 -6 0 -7 5 -4 11 4 6 -2 5 -13 -2 -18 -11 -24 -10 -44 6 -17 16
-20 16 -9 3 8 -11 9 -18 3 -18 -6 0 -14 5 -17 10 -5 8 -11 8 -19 1 -7 -6 -16
-8 -20 -4 -10 10 -37 13 -31 3 3 -4 -2 -10 -10 -14 -8 -3 -14 0 -12 6 2 13
-41 19 -49 6 -3 -4 -10 -8 -15 -8 -6 0 -7 5 -3 12 4 6 3 8 -4 4 -5 -3 -12 -3
-15 1 -2 5 -2 2 -1 -4 2 -7 -4 -13 -12 -13 -9 0 -12 5 -8 12 4 7 3 8 -4 4 -7
-4 -12 -1 -12 6 0 9 -2 10 -8 1 -4 -6 -22 -10 -40 -9 -18 1 -35 -1 -38 -6 -3
-4 -10 -8 -15 -8 -6 0 -7 5 -3 12 4 6 3 8 -4 4 -5 -3 -12 -3 -15 1 -2 5 -2 2
-1 -4 2 -7 -4 -13 -12 -13 -9 0 -12 5 -8 12 4 7 3 8 -4 4 -7 -4 -12 -1 -12 6
0 9 -2 10 -8 1 -4 -6 -22 -10 -40 -9 -18 1 -35 -1 -38 -6 -3 -4 -10 -8 -15 -8
-6 0 -7 5 -3 12 4 6 3 8 -4 4 -5 -3 -12 -3 -15 1 -2 5 -2 2 -1 -4 2 -7 -4 -13
-12 -13 -9 0 -12 5 -8 12 4 7 3 8 -4 4 -7 -4 -12 -1 -12 6 0 10 -2 10 -9 -1
-5 -7 -13 -11 -19 -7 -6 3 -13 2 -17 -4 -4 -6 -12 -7 -18 -3 -17 11 -38 13
-32 3 3 -4 -2 -10 -10 -14 -8 -3 -14 0 -12 6 1 6 -4 13 -12 16 -8 2 -11 0 -7
-6 3 -5 -1 -13 -10 -16 -8 -3 -13 -2 -10 3 3 5 -1 14 -9 21 -13 11 -14 10 -8
-6 6 -16 4 -17 -8 -7 -12 10 -18 10 -27 1 -9 -9 -12 -9 -12 0 0 7 -5 12 -11
12 -5 0 -7 -4 -4 -10 3 -5 -1 -10 -10 -10 -9 0 -14 4 -11 9 8 13 -19 8 -37 -7
-10 -9 -17 -10 -22 -2 -3 6 -11 8 -16 5 -5 -4 -9 -1 -9 4 0 6 -5 11 -11 11 -5
0 -8 -4 -4 -9 3 -5 0 -13 -6 -17 -8 -4 -9 -3 -5 4 4 7 0 12 -11 13 -10 1 -30
2 -45 3 -15 2 -25 -1 -22 -6 3 -4 -2 -8 -11 -8 -10 0 -14 5 -9 13 6 10 4 10
-7 0 -7 -7 -17 -13 -22 -13 -4 0 -5 6 -1 13 5 8 2 8 -9 -2 -15 -12 -17 -11
-17 3 0 10 -4 14 -10 11 -10 -6 -15 9 -10 30 1 5 -2 7 -6 3 -4 -5 -13 1 -21
11 -7 11 -22 18 -32 16 -11 -2 -22 3 -25 11 -3 9 -11 12 -18 8 -8 -5 -9 -1 -5
12 6 14 2 13 -14 -6 -11 -14 -18 -20 -16 -15 3 6 2 17 -4 25 -7 12 -9 12 -9
-3 0 -10 -5 -15 -10 -12 -6 4 -7 12 -3 18 4 7 0 6 -10 -2 -9 -7 -14 -17 -11
-22 3 -5 3 -9 -1 -9 -3 0 -10 10 -15 23 -8 20 -9 20 -10 2 0 -17 -2 -17 -10
-5 -6 10 -10 11 -10 3 0 -7 -11 -13 -24 -13 -16 0 -27 -7 -31 -21 -5 -16 -9
-18 -15 -9 -10 16 -33 2 -26 -16 3 -8 -1 -14 -10 -14 -8 0 -12 -4 -9 -10 3 -5
0 -10 -8 -10 -8 0 -18 -7 -21 -16 -5 -12 -3 -14 7 -8 7 5 6 2 -3 -6 -9 -9 -15
-21 -13 -27 2 -6 -5 -17 -17 -23 -17 -9 -20 -17 -15 -37 4 -18 3 -23 -7 -17
-10 5 -11 4 0 -7 14 -15 16 -43 2 -34 -6 3 -7 -1 -4 -9 3 -9 16 -16 28 -17 11
0 15 -3 8 -6 -10 -4 -9 -8 4 -17 13 -10 14 -15 4 -21 -9 -6 -11 -4 -5 5 6 9 4
11 -4 6 -7 -5 -9 -11 -6 -15 6 -6 10 -7 36 -10 5 0 7 -5 4 -11 -3 -5 -1 -10 4
-10 6 0 11 -9 11 -19 0 -10 7 -22 16 -25 15 -6 15 -4 4 11 -8 10 -1 6 14 -10
15 -15 31 -25 37 -22 5 4 9 -1 9 -11 0 -15 2 -15 26 1 15 9 24 13 20 7 -3 -5
1 -13 10 -16 8 -3 13 -10 10 -14 -3 -5 1 -9 9 -9 8 0 12 4 10 8 -3 4 2 10 11
13 8 3 12 2 9 -4 -3 -5 3 -8 14 -7 11 0 17 5 14 11 -4 5 1 7 10 3 15 -6 21 2
19 23 0 3 8 6 18 6 10 0 16 -4 14 -8 -3 -4 2 -5 10 -2 9 3 13 11 9 18 -4 6 2
4 12 -4 17 -14 18 -13 12 4 -5 13 -3 17 7 13 11 -4 13 -1 9 11 -3 9 -3 14 2
10 4 -4 15 1 24 10 9 10 14 13 11 7 -3 -6 3 -2 13 8 14 16 17 17 17 3 0 -18 8
-20 30 -7 8 6 19 7 25 3 15 -10 55 -10 49 0 -3 4 0 8 5 8 6 0 11 -4 11 -10 0
-5 5 -10 11 -10 5 0 7 6 3 13 -6 9 -4 9 7 1 16 -12 48 -12 67 -1 7 5 12 3 12
-4 0 -8 5 -7 17 2 11 10 14 10 9 2 -8 -15 3 -17 24 -4 8 6 19 7 25 3 15 -10
55 -10 49 0 -3 4 0 8 5 8 6 0 11 -5 11 -11 0 -6 6 -9 13 -6 6 2 11 10 9 16 -1
7 2 10 8 6 6 -3 8 -10 6 -14 -3 -4 6 -7 19 -7 13 0 22 3 19 7 -5 9 17 6 34 -4
7 -5 12 -4 12 2 0 6 5 11 10 11 6 0 10 -8 10 -17 0 -15 2 -15 9 -4 5 8 17 16
25 17 9 1 14 -1 11 -6 -3 -5 3 -7 12 -5 10 2 18 4 18 5 0 1 8 3 18 5 9 2 15
-1 11 -6 -3 -5 0 -9 5 -9 6 0 11 6 11 13 0 8 4 7 10 -3 9 -13 10 -13 10 0 0
13 1 13 10 0 5 -8 10 -10 10 -4 0 6 7 11 15 11 8 0 12 -4 9 -9 -3 -4 0 -8 6
-8 6 0 8 -4 5 -10 -3 -5 2 -10 12 -11 10 0 13 -3 6 -6 -10 -3 -10 -9 0 -25 10
-16 9 -22 -1 -25 -10 -4 -8 -9 5 -20 10 -8 12 -12 6 -8 -17 8 -16 -7 1 -31 10
-13 11 -23 4 -31 -7 -9 -7 -13 2 -13 9 0 9 -4 -1 -17 -8 -9 -9 -14 -4 -11 6 3
17 -1 25 -10 13 -14 12 -15 -3 -9 -9 3 -19 1 -23 -5 -4 -7 -3 -8 4 -4 7 4 12
1 12 -9 0 -9 4 -14 8 -11 5 3 9 -1 9 -9 0 -8 -3 -12 -7 -10 -3 2 -6 -7 -6 -20
0 -13 4 -21 8 -19 5 3 5 11 1 17 -5 8 -2 8 9 0 8 -7 18 -10 22 -6 4 4 4 -1 0
-11 -6 -15 -4 -17 12 -9 10 6 24 8 31 6 7 -2 21 1 32 6 16 9 22 8 30 -6 6 -10
11 -13 11 -7 0 7 7 15 16 18 10 4 13 2 8 -6 -5 -8 1 -9 20 -4 18 4 25 3 21 -4
-10 -17 7 -11 22 8 14 16 14 16 9 -2 -6 -17 -5 -17 11 -5 15 12 16 12 10 -6
-6 -18 -6 -18 6 -3 10 12 17 14 31 6 14 -8 17 -7 12 1 -4 6 -3 11 3 11 5 0 14
-7 19 -16 8 -15 10 -15 15 0 5 11 3 15 -5 10 -7 -5 -8 -3 -3 5 5 9 10 10 18 2
15 -15 40 -14 31 1 -4 7 8 1 26 -12 18 -13 31 -19 27 -13 -10 15 14 22 36 11
11 -6 17 -5 17 3 0 8 5 7 17 -2 15 -12 16 -12 10 3 -4 12 -2 15 8 11 8 -3 13
-8 11 -12 -3 -4 4 -7 14 -7 10 0 17 3 14 7 -2 4 2 9 10 12 8 3 21 -4 30 -16 9
-13 13 -15 10 -6 -3 10 -1 20 4 23 14 8 43 -4 36 -15 -3 -5 6 -5 19 0 14 6 27
7 30 5 3 -3 17 -7 32 -8 18 -3 25 1 21 10 -3 8 0 11 9 7 8 -3 12 -10 8 -17 -4
-6 0 -6 9 2 12 9 18 10 23 2 5 -8 11 -6 19 6 10 13 15 14 21 4 6 -9 4 -11 -5
-5 -8 5 -11 4 -6 -3 4 -7 17 -8 36 -2 17 5 32 5 35 0 3 -5 16 -5 30 0 16 6 27
6 31 -1 3 -6 11 -3 18 7 10 13 15 14 21 4 6 -9 4 -11 -5 -5 -8 5 -11 4 -6 -3
4 -7 17 -8 36 -2 17 5 32 5 35 0 3 -5 16 -5 30 0 16 6 27 6 31 -1 3 -6 11 -3
18 7 10 13 15 14 21 4 6 -9 4 -11 -5 -5 -8 5 -11 4 -6 -3 4 -7 17 -8 36 -2 17
5 32 5 35 0 3 -5 16 -5 30 0 16 6 27 6 31 -1 3 -6 11 -3 18 7 10 13 15 14 21
4 6 -9 4 -11 -5 -5 -8 5 -11 4 -6 -3 4 -7 17 -8 36 -2 17 5 32 5 35 0 3 -5 16
-5 30 0 19 7 26 6 33 -6 8 -15 10 -15 15 0 5 11 3 15 -5 10 -7 -5 -8 -3 -3 5
5 9 10 10 18 2 15 -15 40 -14 31 1 -4 7 8 1 26 -12 18 -13 31 -19 27 -13 -9
14 16 24 34 12 9 -5 23 -2 38 7 13 9 21 12 17 6 -8 -14 60 -20 81 -8 25 14 44
16 37 4 -5 -7 2 -9 20 -4 18 4 25 3 21 -4 -10 -17 7 -11 22 8 14 16 14 16 9
-2 -6 -17 -5 -17 11 -5 15 12 16 12 10 -6 -6 -18 -6 -18 6 -3 10 12 17 14 31
6 14 -8 17 -7 12 1 -4 6 -3 11 3 11 5 0 14 -7 19 -16 8 -15 10 -15 15 0 5 11
3 15 -5 10 -7 -5 -8 -3 -3 5 5 9 10 10 18 2 15 -15 40 -14 31 1 -4 7 8 1 26
-12 18 -13 31 -19 27 -13 -9 14 16 24 34 12 9 -5 23 -2 38 7 13 9 21 12 17 6
-8 -14 60 -20 81 -8 25 14 44 16 37 4 -5 -7 2 -9 20 -4 18 4 25 3 21 -4 -10
-17 7 -11 22 8 14 16 14 16 9 -2 -6 -17 -5 -17 11 -5 15 12 16 12 10 -6 -6
-18 -6 -18 6 -3 10 12 17 14 31 6 14 -8 17 -7 12 1 -4 6 -3 11 3 11 5 0 14 -7
19 -16 8 -15 10 -15 15 0 5 11 3 15 -5 10 -7 -5 -8 -3 -3 5 5 9 10 10 18 2 15
-15 40 -14 31 1 -4 7 8 1 26 -12 18 -13 31 -19 27 -13 -4 6 0 13 8 17 8 3 17
1 21 -5 3 -6 12 -3 21 8 8 10 11 12 7 4 -4 -9 -2 -12 7 -9 8 3 22 1 33 -4 13
-7 16 -7 12 1 -6 10 32 8 71 -4 7 -3 10 2 6 13 -5 16 -5 16 12 0 17 -16 19
-16 30 -1 10 13 14 13 20 3 6 -9 4 -11 -5 -5 -8 5 -11 4 -6 -3 4 -7 17 -8 36
-2 17 5 32 5 35 0 3 -5 16 -5 30 0 16 6 27 6 31 -1 3 -6 11 -3 18 7 10 13 15
14 21 4 6 -9 4 -11 -5 -5 -8 5 -11 4 -6 -3 4 -7 17 -8 36 -2 17 5 32 5 35 0 3
-5 16 -5 30 0 16 6 27 6 31 -1 3 -6 11 -3 18 7 10 13 15 14 21 4 6 -9 4 -11
-5 -5 -8 5 -11 4 -6 -3 4 -7 17 -8 36 -2 17 5 32 5 35 0 3 -5 16 -5 30 0 16 6
27 6 31 -1 3 -6 11 -3 18 7 10 13 15 14 21 4 6 -9 4 -11 -5 -5 -8 5 -11 4 -6
-3 4 -7 17 -8 35 -2 19 5 33 4 41 -3 10 -9 12 -8 7 5 -5 15 -4 16 13 6 10 -7
16 -16 13 -22 -3 -5 -1 -6 6 -2 6 4 8 12 5 18 -4 6 -1 9 7 6 8 -3 22 6 32 19
10 13 23 20 29 17 7 -4 8 -2 4 4 -4 7 -2 12 4 12 6 0 9 4 5 9 -3 6 9 8 27 6
18 -3 29 -1 23 3 -5 4 -11 13 -13 21 -3 12 0 12 12 2 11 -9 16 -9 22 0 5 8 3
10 -7 4 -12 -7 -12 -6 0 6 11 11 14 11 18 1 4 -10 8 -10 21 0 12 10 14 10 8 1
-8 -14 6 -18 18 -6 9 10 46 11 46 2 0 -5 7 -6 15 -3 11 5 13 2 9 -10 -7 -18 7
-21 22 -6 8 8 15 5 25 -7 13 -17 13 -17 -6 -3 -19 14 -19 14 -6 -3 9 -11 22
-16 35 -12 12 3 15 2 9 -1 -18 -8 -16 -24 3 -24 8 0 12 -4 9 -10 -3 -5 0 -10
7 -10 9 0 9 -3 -2 -10 -10 -6 -11 -10 -2 -10 6 0 12 -5 12 -11 0 -5 -5 -7 -11
-3 -8 4 -8 0 0 -15 12 -22 27 -30 16 -8 -4 6 0 4 8 -5 8 -10 17 -14 21 -11 4
4 3 -4 -1 -17 -5 -14 -9 -39 -9 -56 1 -27 -2 -31 -21 -29 -14 1 -20 -2 -16 -9
14 -22 10 -49 -9 -54 -15 -4 -17 -7 -6 -13 10 -7 9 -9 -5 -9 -11 0 -15 -4 -11
-12 5 -8 2 -9 -10 -5 -14 5 -17 3 -12 -8 3 -8 1 -15 -4 -15 -6 0 -10 5 -10 11
0 5 -5 7 -10 4 -6 -4 -7 -11 -4 -17 4 -7 2 -8 -4 -4 -7 4 -12 2 -12 -5 0 -7
-7 -4 -16 7 -8 10 -13 14 -10 7 4 -6 2 -14 -4 -18 -5 -3 -10 -1 -10 6 0 7 -3
9 -7 6 -3 -4 -12 -2 -20 5 -11 9 -12 7 -7 -7 5 -13 3 -16 -7 -13 -8 3 -13 10
-12 16 1 5 -7 8 -17 5 -11 -3 -28 1 -38 8 -15 13 -16 12 -3 -4 12 -15 12 -17
-3 -11 -9 3 -16 14 -17 23 0 12 -2 12 -9 -4 -8 -19 -9 -19 -9 2 -1 12 -6 25
-13 29 -6 4 -8 3 -5 -3 3 -5 0 -10 -8 -10 -8 0 -12 4 -10 8 10 15 -8 41 -26
36 -13 -4 -16 0 -11 12 5 14 4 14 -13 1 -17 -14 -18 -13 -12 5 7 20 7 20 -8 1
-11 -14 -15 -16 -15 -5 0 12 -2 12 -10 -1 -5 -8 -10 -11 -10 -6 0 5 -10 1 -22
-10 -17 -14 -20 -15 -9 -2 13 18 6 42 -10 32 -5 -3 -7 -9 -4 -14 3 -5 1 -12
-5 -15 -6 -4 -10 -3 -9 2 4 22 -2 25 -16 7 -9 -12 -13 -13 -10 -4 4 11 -1 16
-15 17 -11 1 -20 -3 -20 -8 0 -6 5 -7 12 -3 7 5 8 3 3 -6 -6 -10 -12 -7 -27
11 -15 20 -17 21 -11 4 6 -17 5 -18 -9 -7 -13 10 -18 10 -24 1 -5 -9 -11 -7
-22 7 -10 13 -13 14 -9 3 3 -9 1 -22 -5 -30 -8 -11 -9 -10 -4 3 3 12 -2 22
-17 29 -21 12 -21 11 -7 -6 14 -17 14 -18 -10 -5 -23 12 -24 12 -11 -4 12 -14
12 -16 -3 -10 -9 3 -16 10 -16 14 0 14 -45 5 -52 -10 -5 -12 -7 -12 -7 3 -1 9
-6 17 -12 17 -5 0 -8 -4 -4 -9 7 -12 -26 -6 -54 9 -12 6 -21 7 -20 3 3 -20 -2
-27 -11 -13 -9 13 -10 13 -10 0 0 -13 -1 -13 -10 0 -7 11 -10 11 -10 2 0 -7
-4 -11 -10 -7 -5 3 -7 13 -4 23 5 14 4 14 -4 2 -6 -8 -9 -17 -6 -21 2 -4 -4
-13 -14 -20 -15 -13 -16 -12 -3 4 9 12 10 17 2 17 -7 0 -9 5 -5 12 4 7 3 8 -5
4 -6 -4 -9 -11 -6 -16 3 -5 1 -12 -5 -15 -6 -4 -10 -3 -9 2 4 22 -2 25 -16 7
-10 -13 -13 -14 -10 -3 4 10 0 16 -9 16 -8 0 -13 -4 -10 -9 3 -4 0 -8 -5 -8
-6 0 -11 5 -11 12 0 6 -7 3 -15 -8 -13 -18 -14 -18 -9 6 l5 25 -14 -24 -15
-24 -6 21 c-7 21 -26 22 -26 1 0 -6 5 -7 12 -3 7 5 8 3 3 -6 -6 -10 -12 -7
-27 11 -15 20 -17 21 -11 4 6 -17 5 -18 -9 -7 -13 10 -18 10 -24 1 -5 -9 -11
-7 -22 7 -10 13 -13 14 -9 3 3 -9 1 -22 -5 -30 -8 -11 -9 -10 -4 3 3 12 -2 22
-17 29 -21 12 -21 11 -7 -6 14 -17 14 -17 -7 -7 -17 10 -25 9 -37 -4 -15 -14
-16 -14 -16 0 0 9 5 16 12 16 6 0 9 3 5 6 -3 3 -15 0 -26 -8 -12 -8 -18 -18
-14 -22 4 -4 -1 -4 -11 0 -18 7 -18 8 0 21 10 7 13 13 8 13 -6 0 -15 -5 -22
-12 -7 -7 -12 -8 -12 -4 0 5 -8 2 -17 -5 -15 -12 -16 -12 -10 6 7 20 7 20 -8
1 -8 -11 -15 -14 -15 -8 0 7 -5 12 -11 12 -5 0 -7 -6 -3 -12 5 -8 0 -7 -11 2
-11 9 -16 10 -11 3 4 -7 3 -13 -2 -13 -6 0 -13 7 -16 16 -3 8 -11 12 -16 9 -8
-5 -7 -11 1 -21 10 -12 9 -13 -5 -8 -9 3 -16 11 -16 18 0 6 -5 4 -10 -4 -8
-13 -10 -13 -10 -1 0 11 -4 9 -15 -5 -13 -18 -14 -18 -9 6 2 14 2 19 -2 12 -3
-6 -11 -9 -17 -5 -7 4 -8 0 -4 -11 4 -10 3 -15 -4 -11 -5 4 -16 1 -24 -5 -8
-6 -20 -8 -26 -4 -7 4 -9 3 -5 -4 3 -6 1 -14 -5 -17 -5 -4 -8 -14 -5 -22 5
-11 2 -13 -10 -9 -10 4 -14 1 -11 -6 2 -7 -3 -19 -12 -25 -14 -11 -14 -14 -1
-23 13 -8 8 -14 -11 -12 -3 0 -10 -8 -17 -18 -10 -17 -9 -18 6 -13 12 4 11 0
-6 -17 -19 -18 -21 -24 -10 -32 9 -7 4 -8 -17 -4 -16 3 -24 3 -17 0 6 -3 12
-12 12 -20 0 -9 -5 -12 -12 -8 -8 5 -9 2 -4 -11 5 -14 4 -16 -7 -6 -12 9 -14
6 -11 -15 2 -18 -1 -24 -11 -20 -11 4 -12 0 -6 -17 9 -25 4 -50 -10 -41 -5 3
-9 0 -9 -6 0 -6 -5 -8 -12 -4 -8 5 -7 0 2 -11 14 -17 13 -18 -3 -12 -15 6 -16
4 -6 -16 12 -21 11 -21 -6 -7 -11 9 -16 10 -11 3 4 -8 2 -13 -5 -13 -8 0 -8
-4 1 -15 11 -13 10 -14 -5 -9 -13 5 -16 4 -11 -4 4 -7 2 -12 -4 -12 -6 0 -8
-4 -5 -10 3 -5 0 -10 -8 -10 -13 0 -15 -5 -19 -49 -2 -13 -8 -18 -22 -15 -14
2 -16 0 -9 -7 13 -13 -3 -69 -19 -69 -6 0 -4 8 3 18 13 15 12 16 -3 4 -9 -8
-14 -20 -11 -28 3 -8 0 -14 -7 -14 -10 0 -9 -4 0 -16 11 -12 11 -15 -1 -12 -8
2 -13 -2 -12 -9 2 -8 -4 -10 -15 -6 -15 6 -16 5 -2 -12 9 -11 10 -16 3 -11
-12 7 -18 -11 -14 -37 1 -5 -3 -6 -9 -2 -17 10 -33 -5 -20 -20 8 -9 5 -14 -10
-18 -11 -3 -18 -1 -14 4 3 5 -2 9 -11 9 -9 0 -13 -4 -10 -10 3 -6 -1 -7 -9 -4
-9 3 -14 9 -11 14 5 9 -28 5 -70 -8 -16 -5 -36 -7 -44 -4 -9 3 -11 0 -6 -8 5
-8 4 -11 -3 -6 -6 4 -9 12 -6 20 3 7 -3 13 -13 13 -24 0 -44 -17 -36 -31 3 -6
0 -6 -8 2 -7 6 -29 12 -48 12 -27 0 -32 3 -21 10 11 7 8 8 -13 6 -15 -1 -30
-6 -35 -11 -4 -4 -2 -5 4 -2 7 4 18 -1 25 -11 12 -15 12 -16 -1 -6 -8 6 -25
10 -38 9 -13 -1 -26 3 -29 8 -4 6 -1 7 8 2 8 -5 11 -4 6 0 -12 14 -48 14 -37
0 7 -8 5 -12 -5 -12 -8 0 -15 4 -15 9 0 4 -4 8 -10 8 -5 0 -7 -8 -4 -17 3 -10
-2 -7 -10 7 -14 23 -15 23 -16 5 -1 -20 -1 -20 -15 -1 -11 14 -15 16 -15 5 0
-12 -2 -12 -10 1 -9 14 -11 13 -14 -9 0 -5 -5 -13 -10 -18 -5 -4 -6 -3 -3 3
14 24 -38 42 -59 21 -4 -3 5 -4 20 -1 14 2 26 0 26 -5 0 -5 -8 -8 -17 -6 -10
1 -24 -3 -32 -9 -11 -8 -13 -8 -7 2 5 8 -1 12 -23 12 -16 0 -32 6 -34 13 -3 7
-6 6 -6 -5 -1 -9 -6 -20 -11 -23 -6 -4 -10 -3 -9 2 5 29 -1 33 -28 20 -27 -14
-58 -13 -49 2 3 4 -4 7 -14 7 -17 0 -18 -2 -5 -16 13 -15 13 -17 0 -17 -8 0
-12 4 -9 9 5 8 -10 12 -34 9 -8 -1 -21 4 -30 11 -13 11 -15 11 -9 -4 4 -13 2
-15 -10 -11 -12 5 -14 3 -8 -7 5 -8 4 -11 -3 -6 -6 4 -9 12 -6 20 3 7 -3 13
-13 13 -24 0 -44 -17 -36 -31 5 -8 3 -8 -8 0 -8 6 -21 11 -29 11 -8 1 -24 4
-35 9 -18 7 -19 6 -5 -11 14 -17 14 -17 -7 -5 -12 8 -19 19 -15 25 3 5 -2 4
-11 -3 -9 -8 -25 -11 -38 -7 -16 5 -19 4 -14 -5 6 -9 4 -11 -5 -5 -7 4 -16 2
-22 -6 -8 -11 -9 -10 -5 3 7 20 -20 33 -39 17 -8 -6 -11 -16 -7 -23 3 -6 0 -6
-8 2 -7 6 -29 12 -48 12 -27 0 -32 3 -21 10 11 7 8 8 -13 6 -15 -1 -30 -6 -35
-11 -4 -4 -2 -5 4 -2 7 4 18 -1 25 -11 12 -15 12 -16 -1 -6 -8 6 -25 10 -38 9
-13 -1 -26 3 -29 8 -4 6 -1 7 8 2 8 -5 11 -4 6 0 -12 14 -48 14 -37 0 7 -8 5
-12 -5 -12 -8 0 -15 4 -15 9 0 4 -4 8 -10 8 -5 0 -7 -8 -4 -17 3 -10 -2 -7
-10 7 -14 23 -15 23 -16 5 -1 -20 -1 -20 -15 -1 -11 14 -15 16 -15 5 0 -12 -2
-12 -10 1 -9 14 -14 7 -11 -13 1 -5 -3 -6 -9 -2 -5 3 -10 0 -10 -7 0 -10 -2
-10 -8 -1 -8 13 -29 12 -51 -1 -10 -6 -12 -5 -7 2 5 8 -3 12 -23 12 -16 0 -32
6 -34 13 -3 7 -6 6 -6 -5 -1 -9 -6 -20 -11 -23 -6 -4 -10 -3 -9 2 5 29 -1 33
-28 20 -27 -14 -58 -13 -49 2 3 4 -4 7 -14 7 -17 0 -18 -2 -5 -16 13 -15 13
-17 0 -17 -8 0 -12 4 -9 9 5 8 -10 12 -34 9 -8 -1 -21 4 -30 11 -13 11 -15 11
-9 -4 4 -13 2 -15 -10 -11 -12 5 -14 3 -8 -7 5 -8 4 -11 -3 -6 -6 4 -9 12 -6
20 3 7 -3 13 -13 13 -24 0 -44 -17 -36 -31 5 -8 3 -8 -8 0 -8 6 -21 11 -29 11
-8 1 -24 4 -35 9 -18 7 -19 6 -5 -11 14 -17 14 -17 -7 -5 -12 8 -19 19 -15 25
3 5 -2 4 -11 -3 -9 -8 -25 -11 -38 -7 -15 5 -19 4 -14 -5 5 -9 3 -9 -11 -2
-22 11 -62 6 -81 -10 -8 -6 -13 -7 -12 -2 5 26 -2 43 -16 38 -10 -4 -13 0 -10
14 3 17 -2 20 -32 18 -19 -1 -37 3 -40 8 -4 5 -1 6 5 2 7 -4 12 -3 12 1 0 5
-9 14 -21 21 -12 8 -18 9 -15 4 7 -12 -20 -10 -31 3 -4 4 -2 5 5 0 11 -6 12
-3 3 14 -7 11 -14 21 -17 21 -3 0 -3 -4 0 -8 2 -4 1 -14 -4 -22 -7 -11 -11
-11 -24 -1 -11 9 -16 10 -16 2 0 -6 -4 -11 -10 -11 -5 0 -6 7 -3 17 5 12 3 14
-8 8 -7 -5 -22 -10 -32 -10 -10 -1 -23 -8 -28 -16 -5 -8 -9 -11 -9 -7 0 4 -14
2 -30 -4 -25 -8 -28 -13 -19 -24 10 -12 8 -13 -6 -8 -13 5 -16 4 -11 -4 7 -11
-6 -17 -28 -13 -5 1 -3 -5 4 -14 11 -13 10 -14 -5 -9 -13 5 -16 4 -11 -4 4 -7
2 -12 -4 -12 -6 0 -8 -5 -4 -12 5 -8 0 -7 -11 2 -12 10 -16 10 -11 2 4 -7 2
-19 -4 -27 -8 -9 -8 -15 -2 -15 5 0 8 -9 5 -20 -3 -11 -10 -17 -17 -13 -6 3
-2 -4 9 -17 11 -13 14 -20 8 -16 -19 11 -36 -3 -24 -18 6 -7 11 -27 13 -44 1
-18 6 -32 10 -32 4 0 8 -7 8 -16 0 -8 5 -12 10 -9 6 3 10 -3 10 -14 0 -15 6
-21 22 -21 12 0 19 -3 15 -6 -8 -8 16 -33 25 -27 4 2 5 -4 1 -14 -6 -16 -5
-16 10 -4 16 12 17 12 10 -5 -6 -17 -5 -17 10 -5 15 12 17 12 11 -3 -7 -19 6
-21 25 -3 11 10 12 9 6 -2 -6 -11 -4 -13 8 -8 10 4 21 -1 27 -11 9 -14 10 -13
4 7 -5 21 -4 22 9 10 8 -8 12 -18 9 -23 -3 -5 0 -6 7 -2 6 4 9 11 6 16 -3 5
11 6 31 3 26 -4 35 -3 30 5 -3 6 -1 14 5 18 7 4 9 3 5 -4 -3 -6 -2 -13 4 -17
5 -3 10 -1 10 5 0 6 5 8 10 5 6 -3 10 -1 10 5 0 7 7 9 16 6 15 -6 15 -4 3 10
-13 16 -12 16 11 4 23 -12 24 -12 11 3 -12 15 -11 17 9 17 15 0 20 4 16 15 -3
8 -2 14 2 13 4 -1 15 2 26 7 12 5 21 3 28 -6 7 -10 8 -9 4 7 -4 14 -2 21 8 21
9 0 13 -4 11 -8 -9 -14 36 -17 49 -3 13 12 16 11 21 -6 5 -16 9 -17 20 -7 7 6
11 15 9 18 -2 3 3 6 12 6 10 0 12 -7 8 -21 -6 -19 -4 -18 15 4 13 14 20 20 17
13 -4 -6 -2 -14 4 -18 9 -6 15 8 11 29 -1 5 4 4 12 -2 8 -7 18 -8 22 -4 5 4 5
1 1 -6 -4 -7 -12 -9 -18 -6 -6 4 -8 2 -5 -4 4 -5 16 -8 27 -5 11 3 18 9 15 12
-2 4 2 8 11 8 10 0 12 -7 8 -21 -6 -19 -4 -18 15 4 13 14 20 20 17 15 -7 -15
31 -38 39 -24 5 7 11 7 20 -1 9 -8 14 -7 18 4 4 10 1 13 -9 9 -7 -3 -14 -1
-14 4 0 5 16 8 35 8 32 0 34 -1 18 -14 -17 -13 -17 -13 1 -7 10 3 26 1 35 -6
13 -10 14 -10 4 2 -17 18 -16 27 2 27 8 0 12 -3 10 -7 -2 -3 5 -11 15 -18 13
-8 21 -8 25 -1 5 7 11 7 20 -1 9 -8 14 -7 18 4 4 10 1 13 -9 9 -7 -3 -14 -1
-14 4 0 5 16 8 35 8 29 0 33 -2 20 -11 -14 -10 -12 -12 8 -10 14 0 23 6 20 12
-2 7 1 15 8 20 7 4 10 3 5 -4 -10 -16 15 -27 26 -11 8 11 9 10 4 -3 -3 -10 0
-20 6 -24 6 -4 8 -3 4 4 -3 6 -1 14 6 18 16 10 49 13 43 4 -2 -3 5 -11 15 -18
13 -8 21 -8 25 -1 5 7 11 7 20 -1 9 -8 14 -7 18 4 4 10 1 13 -9 9 -7 -3 -14
-1 -14 4 0 5 16 8 35 8 29 0 33 -2 20 -11 -14 -10 -12 -12 8 -10 14 0 23 6 20
12 -2 7 1 15 8 20 7 4 10 3 5 -4 -10 -16 15 -27 26 -11 8 11 9 10 4 -3 -3 -10
0 -20 6 -24 6 -4 8 -3 4 4 -3 6 -1 14 6 18 20 13 57 13 64 2 4 -6 2 -8 -4 -4
-6 3 -14 2 -17 -4 -5 -8 -12 -7 -23 2 -15 12 -16 11 -3 -5 9 -12 17 -14 26 -7
6 5 15 7 18 3 4 -3 10 2 13 11 5 13 9 15 15 5 6 -10 11 -10 24 1 13 11 18 11
28 0 8 -8 8 -11 1 -7 -7 4 -18 -1 -25 -11 -13 -16 -13 -16 5 -2 11 8 21 14 23
13 10 -8 23 -1 17 10 -5 7 0 6 11 -3 10 -8 21 -15 24 -15 3 0 5 -4 3 -9 -2 -5
4 -4 12 4 19 15 21 24 4 14 -7 -4 -8 -3 -4 5 6 9 11 9 24 -1 13 -11 15 -10 9
5 -3 9 -4 17 -1 17 2 0 8 -10 12 -21 8 -21 9 -21 26 -3 18 17 18 17 12 -4 -5
-15 -3 -22 5 -22 7 0 10 -3 6 -6 -8 -9 16 -33 27 -27 4 3 5 -5 1 -18 -5 -19
-4 -21 4 -9 10 13 16 10 41 -18 17 -18 28 -38 24 -44 -4 -7 -3 -8 4 -4 11 7
17 -6 13 -28 -1 -5 6 -3 16 4 10 8 15 11 11 6 -8 -9 15 -36 30 -36 15 0 44
-38 37 -49 -3 -6 1 -11 9 -11 9 0 16 -5 16 -11 0 -5 6 -7 13 -3 6 4 9 3 4 -1
-10 -12 22 -45 45 -45 10 0 18 -4 18 -8 0 -4 18 -19 40 -32 22 -14 40 -28 40
-32 0 -5 8 -8 17 -8 9 0 14 -2 11 -5 -6 -6 87 -102 127 -130 16 -11 40 -31 54
-45 14 -14 29 -24 33 -23 4 2 10 -6 13 -17 4 -11 11 -20 16 -20 6 0 8 -4 5 -9
-3 -5 1 -12 10 -15 10 -4 13 -2 9 7 -4 6 0 3 9 -7 8 -10 13 -22 11 -26 -2 -4
2 -7 10 -7 8 0 11 5 8 11 -3 6 12 -8 33 -31 21 -23 46 -43 54 -45 8 -2 21 -10
28 -18 8 -8 11 -10 8 -3 -4 6 -1 15 5 19 7 4 9 3 5 -4 -3 -6 -1 -14 5 -17 5
-4 8 -14 5 -22 -3 -8 -2 -12 3 -8 13 7 42 -5 35 -16 -5 -8 26 -14 50 -10 5 1
6 -5 3 -13 -8 -20 4 -28 21 -13 11 8 14 9 9 0 -10 -16 31 -52 53 -48 10 2 25
-4 32 -13 12 -16 11 -16 -7 -2 -18 14 -19 13 -8 -1 7 -9 9 -19 5 -24 -4 -4 3
-3 15 4 15 7 24 8 28 1 4 -6 11 -7 17 -4 7 4 8 2 4 -5 -6 -9 -11 -9 -22 0 -10
8 -14 8 -14 0 0 -6 3 -11 8 -12 31 -3 46 -10 59 -29 10 -14 19 -18 25 -12 12
12 48 -15 48 -36 0 -10 4 -11 13 -4 7 5 21 6 32 1 11 -4 14 -8 8 -8 -7 -1 -13
-5 -13 -9 0 -7 15 -10 57 -14 6 -1 10 -10 8 -21 -4 -16 -2 -17 12 -5 14 11 16
11 8 -1 -6 -11 -4 -13 9 -8 9 4 14 3 11 -2 -3 -5 -1 -12 5 -16 5 -3 10 -1 10
6 0 8 3 9 13 0 8 -6 17 -8 21 -4 4 4 4 0 0 -10 -3 -10 -1 -17 6 -17 6 0 9 -4
6 -8 -3 -5 1 -9 9 -9 8 0 11 5 8 11 -4 6 0 5 9 -1 8 -7 18 -10 21 -6 4 3 7 -2
7 -13 0 -16 2 -17 10 -4 8 13 10 12 10 -3 0 -10 5 -15 10 -12 6 3 10 1 10 -6
0 -8 4 -8 16 1 8 8 14 9 13 4 -3 -20 2 -34 12 -34 6 0 8 7 5 18 -4 9 10 -1 30
-23 20 -22 33 -35 30 -28 -4 6 -2 14 4 18 9 5 14 -7 11 -27 0 -4 7 -4 16 -1
10 4 14 2 9 -5 -3 -6 -2 -13 3 -16 5 -4 13 -1 17 5 5 8 3 9 -6 4 -9 -5 -11 -4
-6 3 11 19 26 14 26 -8 0 -11 5 -20 11 -20 5 0 7 5 4 10 -10 17 5 11 28 -11
12 -11 30 -18 39 -15 11 2 18 -1 18 -10 0 -8 5 -14 10 -14 6 0 10 6 10 13 0 8
3 7 10 -3 6 -9 5 -17 -3 -22 -9 -6 -9 -8 0 -8 6 0 15 5 18 11 8 11 42 -30 37
-44 -1 -5 3 -5 10 0 17 10 32 11 39 1 3 -4 18 -9 33 -10 15 -1 32 -8 37 -15 6
-6 18 -9 26 -6 13 5 15 2 10 -12 -6 -15 -5 -16 8 -5 12 10 15 10 15 -3 0 -8 9
-17 20 -20 11 -3 18 -1 15 3 -3 4 4 6 15 3 11 -3 17 -10 14 -15 -4 -6 2 -7 16
-3 19 6 22 4 17 -9 -4 -9 -3 -15 1 -15 29 5 62 -3 56 -12 -4 -8 -1 -8 13 -1
15 9 23 7 35 -8 9 -10 16 -20 15 -22 -1 -2 4 3 11 11 10 13 12 11 13 -10 0
-22 1 -23 9 -4 8 19 9 19 9 0 1 -15 4 -16 13 -7 15 15 28 15 28 1 0 -5 -4 -7
-10 -4 -5 3 -10 1 -10 -5 0 -7 7 -9 16 -6 9 3 18 6 20 6 3 0 2 5 -2 12 -4 7
-3 8 4 4 6 -4 8 -14 5 -24 -6 -15 -5 -16 12 -2 10 8 16 10 12 4 -4 -7 0 -14 8
-18 8 -3 15 0 15 7 0 8 3 7 9 -2 8 -12 12 -13 25 -1 14 11 16 10 10 -5 -5 -13
-4 -16 5 -11 6 4 18 2 26 -4 8 -7 15 -9 15 -4 0 5 7 1 14 -9 16 -20 76 -34 76
-18 0 6 -7 8 -15 5 -8 -4 -15 -2 -15 3 0 20 32 8 41 -15 9 -24 10 -24 30 -6
19 17 20 17 13 -1 -5 -13 -4 -16 4 -11 7 4 12 3 12 -2 0 -15 28 -23 36 -10 4
7 3 8 -4 4 -6 -4 -16 4 -22 16 -11 22 -11 22 5 3 18 -22 24 -23 37 -3 6 9 7 5
3 -11 -5 -16 -4 -21 4 -16 7 4 18 1 26 -5 12 -10 15 -9 15 6 0 17 1 17 16 -2
8 -10 13 -13 9 -6 -3 6 -1 12 4 12 6 0 11 -3 11 -8 0 -4 18 -7 40 -6 24 0 37
-3 33 -9 -4 -6 1 -8 11 -4 10 4 20 7 22 7 3 0 2 5 -2 12 -5 7 -3 8 7 2 8 -5
19 -9 24 -9 6 0 9 -8 7 -18 -3 -15 8 -17 93 -17 62 0 94 4 90 10 -3 6 1 10 9
10 9 0 16 5 16 10 0 6 10 2 22 -10 12 -11 24 -18 27 -15 2 3 -4 11 -15 19 -17
13 -16 14 11 9 23 -3 27 -2 15 6 -20 14 -4 14 22 0 16 -9 19 -8 13 2 -6 9 -3
10 10 5 16 -6 16 -4 4 11 -7 10 -9 15 -5 11 5 -4 16 -2 24 5 13 10 15 9 8 -3
-4 -8 0 -6 8 4 9 11 16 23 16 28 0 4 5 8 11 8 8 0 7 -6 -2 -17 -7 -10 -1 -6
14 9 29 29 35 43 15 33 -7 -4 -4 0 6 9 10 8 23 13 28 9 6 -3 5 4 -1 15 -7 14
-8 23 -1 27 6 4 7 12 4 18 -4 7 -4 9 0 5 14 -12 35 15 24 30 -8 9 -7 11 4 7
12 -5 15 0 12 20 -2 19 1 25 11 21 14 -5 13 22 -1 47 -4 6 3 3 17 -8 18 -15
20 -16 10 -2 -7 9 -10 17 -6 17 4 0 1 8 -6 17 -12 14 -12 16 0 8 11 -6 13 -2
9 18 -3 15 -1 24 3 21 5 -3 9 1 10 8 0 7 3 24 5 38 4 24 4 24 -10 5 -9 -11
-16 -16 -16 -12 0 4 12 20 28 34 15 15 21 23 15 19 -7 -4 -13 -2 -13 3 0 6 6
11 13 11 9 0 9 2 -1 9 -8 4 -14 12 -14 16 0 4 6 12 14 16 10 7 10 9 0 9 -9 0
-10 5 -2 19 7 14 6 21 -3 24 -9 4 -9 6 1 6 6 1 12 6 12 12 0 5 -6 7 -12 3 -10
-6 -10 -4 0 8 10 13 10 17 0 21 -10 4 -10 6 1 6 10 1 11 4 2 15 -9 11 -9 16 0
22 8 5 9 3 4 -6 -6 -9 -4 -11 4 -6 9 6 8 12 -4 26 -12 14 -13 20 -4 26 8 5 10
3 4 -6 -5 -9 -4 -11 3 -6 7 4 12 14 12 22 0 10 -5 12 -12 8 -10 -6 -10 -5 -1
8 7 8 9 19 5 24 -4 4 1 2 11 -5 15 -12 17 -12 11 3 -8 20 24 59 43 52 7 -3 13
1 13 9 0 8 7 15 15 15 14 0 20 12 16 33 -1 4 9 2 21 -4 22 -12 22 -11 8 7 -8
10 -11 16 -6 12 16 -13 45 11 41 33 -3 16 -1 18 9 10 10 -8 17 -7 27 6 8 9 9
14 2 10 -6 -4 -14 -3 -17 2 -3 5 1 12 10 15 13 5 14 9 4 21 -7 9 -10 18 -7 22
4 3 1 13 -6 21 -9 12 -9 14 0 8 10 -5 11 7 8 50 -3 31 -8 62 -12 68 -4 6 1 5
11 -3 9 -8 16 -10 15 -5 -4 21 2 28 11 14 8 -13 10 -13 10 2 0 9 5 20 12 24 7
4 8 3 4 -4 -4 -7 -1 -12 9 -12 11 0 15 5 12 14 -4 10 0 14 13 11 21 -4 36 21
17 29 -7 2 -1 5 12 5 24 1 24 2 6 15 -18 13 -17 14 8 11 15 -2 25 1 21 6 -3 5
-11 6 -17 2 -7 -3 -3 4 8 17 11 13 14 20 8 16 -7 -4 -13 -2 -13 4 0 6 -5 8
-12 4 -8 -5 -7 0 2 11 10 13 11 16 2 11 -9 -5 -13 -3 -11 5 3 29 -1 40 -13 33
-8 -5 -7 0 2 11 9 11 10 16 3 11 -9 -5 -13 0 -13 16 0 18 -2 20 -10 8 -7 -11
-10 -11 -10 -2 0 8 -5 10 -12 6 -9 -5 -8 -2 1 9 12 15 12 17 -3 11 -21 -8 -20
0 2 22 15 16 15 17 0 12 -10 -4 -22 0 -30 10 -8 9 -8 13 -1 9 7 -4 14 1 18 13
4 11 11 18 16 14 12 -7 7 18 -6 29 -6 5 -3 7 8 3 9 -3 17 0 17 6 0 7 4 7 14
-1 11 -9 16 -9 22 0 5 8 3 10 -7 4 -12 -7 -12 -6 0 6 11 11 14 11 18 1 4 -10
8 -10 21 0 9 7 13 8 9 2 -3 -6 0 -11 8 -11 8 0 12 4 9 9 -7 11 3 10 27 -2 15
-9 21 -7 25 5 4 9 13 14 21 11 8 -3 12 -2 9 2 -3 5 1 9 9 9 20 0 19 -14 -2
-26 -10 -6 -13 -11 -7 -11 6 0 17 7 24 15 9 11 16 12 25 5 10 -8 15 -8 21 1 4
8 3 9 -4 5 -8 -5 -10 -1 -5 9 4 13 8 14 14 4 4 -7 15 -14 23 -15 9 -1 13 2 10
8 -4 6 11 8 39 5 35 -3 44 -1 40 10 -3 8 0 13 8 11 8 -2 13 3 11 10 -1 8 2 11
8 7 6 -4 17 -2 25 5 10 8 15 8 21 -1 5 -8 3 -9 -6 -4 -9 6 -11 4 -5 -5 6 -10
11 -9 22 6 8 10 19 19 26 19 7 1 11 7 9 14 -1 7 2 10 8 6 5 -3 10 -2 10 4 0 5
9 13 20 16 24 7 40 35 45 76 3 20 0 27 -7 23 -7 -5 -8 -2 -2 7 14 23 15 52 2
61 -7 4 -8 8 -3 8 6 0 11 9 12 20 1 11 -2 18 -6 16 -4 -3 -8 1 -8 9 0 8 4 12
9 9 4 -3 8 -1 8 5 0 5 -5 13 -10 16 -8 5 -8 11 0 20 8 10 3 21 -19 45 -16 18
-28 41 -26 50 2 11 -4 20 -15 23 -15 4 -18 11 -14 33 3 16 10 35 17 44 6 8 1
6 -12 -5 -14 -11 -21 -14 -17 -7 4 6 3 12 -2 12 -6 0 -8 10 -4 22 4 16 2 19
-9 13 -12 -8 -12 -6 0 8 11 14 11 17 0 17 -11 0 -11 2 1 10 12 8 12 10 1 10
-11 0 -11 3 0 17 10 11 10 14 2 9 -8 -4 -13 -2 -13 8 0 8 -4 16 -10 18 -5 2
-10 18 -12 36 -1 20 -8 32 -16 32 -12 0 -12 3 -2 16 11 12 11 15 -1 12 -10 -2
-14 7 -14 32 0 19 -6 39 -13 43 -7 5 -9 13 -5 20 19 31 1 76 -18 46 -11 -17
-4 34 7 53 5 7 2 9 -8 6 -8 -4 -15 0 -15 8 0 7 4 11 9 8 15 -10 8 9 -9 23 -10
8 -12 12 -5 8 6 -3 12 -1 12 4 0 6 -5 11 -12 11 -6 0 -3 7 8 15 18 14 18 15 0
8 -16 -5 -18 -2 -14 20 4 22 3 25 -8 16 -12 -10 -13 -5 -9 26 3 28 0 42 -13
52 -16 14 -16 14 0 9 22 -7 19 16 -3 26 -11 4 -14 15 -11 39 3 22 1 30 -7 25
-6 -4 -11 -3 -11 3 0 5 5 13 10 16 7 4 7 13 0 26 -6 10 -10 25 -9 32 3 24 -1
38 -10 33 -4 -3 -13 6 -20 21 -9 20 -9 24 2 20 7 -3 13 2 13 13 0 10 -5 16
-11 14 -6 -3 -11 6 -12 18 -2 18 0 20 7 8 8 -13 10 -12 10 3 0 9 -5 17 -11 17
-5 0 -7 5 -4 11 10 16 12 69 3 63 -12 -8 -9 11 4 24 9 9 9 12 0 12 -12 0 -12
26 1 46 4 7 -1 18 -10 25 -14 12 -16 12 -8 -1 4 -8 4 -12 0 -7 -15 13 -14 38
1 44 8 3 11 9 8 14 -3 5 -11 7 -17 3 -7 -3 -5 0 4 8 19 16 21 48 2 41 -7 -3
-13 0 -13 6 0 6 5 11 11 11 6 0 3 7 -5 16 -21 20 -20 25 2 18 16 -5 16 -5 0 6
-17 11 -26 36 -10 26 5 -3 9 1 9 9 0 8 -3 12 -7 10 -9 -5 -4 81 6 96 4 8 3 9
-4 5 -13 -8 -17 6 -5 17 8 9 10 66 2 61 -4 -2 -10 3 -13 12 -4 11 -2 15 7 11
7 -3 13 3 13 13 0 10 -4 16 -8 14 -4 -3 -8 2 -8 11 0 10 5 13 13 9 8 -5 8 -2
-2 9 -11 14 -11 17 0 17 9 1 8 4 -4 11 -10 6 -14 15 -10 22 11 18 11 47 0 47
-5 0 -3 8 4 17 8 9 9 14 3 10 -8 -4 -13 5 -16 27 -2 22 0 32 7 29 5 -4 7 -3 3
2 -4 4 -2 15 5 23 10 13 9 14 -2 7 -11 -6 -13 -4 -8 8 3 9 1 19 -5 23 -7 5 -8
2 -3 -6 5 -9 4 -11 -4 -6 -9 6 -9 11 1 24 10 12 10 14 1 8 -13 -7 -18 19 -13
72 1 13 -8 31 -22 43 -13 11 -18 18 -12 15 21 -10 23 32 3 55 -22 25 -25 36
-6 20 11 -8 13 -7 12 7 0 9 -5 24 -10 32 -5 8 -8 29 -7 47 2 19 -2 33 -9 33
-6 0 -9 9 -6 20 3 11 0 23 -5 27 -7 4 -8 1 -3 -8 5 -8 4 -11 -1 -6 -5 5 -10
17 -10 28 -1 10 -2 26 -3 35 0 8 -5 12 -11 9 -13 -8 -13 1 1 28 9 18 9 20 -2
10 -17 -17 -26 -16 -26 2 0 8 4 12 9 9 4 -3 8 0 8 5 0 6 -5 11 -11 11 -6 0 -9
9 -6 20 3 11 0 23 -5 27 -7 4 -8 1 -3 -7 6 -9 4 -11 -4 -5 -8 4 -11 20 -9 37
3 19 0 32 -9 35 -7 3 -13 9 -13 15 0 5 5 6 11 3 6 -4 5 2 -3 14 -7 12 -16 21
-21 21 -4 0 -2 10 4 23 12 22 12 22 -10 3 -22 -20 -30 -9 -8 13 10 11 10 13 0
7 -8 -4 -13 -1 -13 8 0 9 -5 16 -10 16 -6 0 -9 4 -8 9 2 5 -6 17 -17 25 l-20
16 20 -6 c15 -4 13 -1 -5 10 -14 8 -21 15 -16 16 6 0 5 5 -2 12 -8 8 -9 15 -1
25 9 10 8 13 -1 13 -22 0 -40 33 -27 49 9 12 9 13 0 7 -8 -4 -13 -2 -13 4 0 6
-5 8 -12 4 -10 -6 -10 -4 0 8 11 13 10 16 -5 14 -12 0 -17 5 -15 15 1 9 -5 20
-14 23 -9 4 -14 13 -10 21 3 9 0 15 -9 15 -8 0 -15 5 -15 11 0 5 4 8 8 5 5 -3
9 1 9 9 0 8 -3 14 -6 13 -3 0 -13 0 -21 1 -13 1 -13 2 0 11 12 8 12 10 1 10
-8 0 -20 8 -28 18 -8 9 -11 11 -7 3 5 -10 3 -12 -5 -6 -9 5 -10 10 -2 18 13
13 -14 47 -38 47 -14 0 -14 2 -1 10 12 7 12 10 1 10 -7 0 -11 6 -8 15 4 8 1
17 -5 21 -7 4 -8 3 -4 -4 4 -7 2 -12 -3 -12 -6 0 -11 6 -11 14 0 7 -8 20 -17
27 -16 13 -17 12 -4 -4 12 -15 12 -17 -3 -11 -9 3 -16 15 -16 26 0 10 -4 16
-10 13 -5 -3 -10 1 -10 10 0 9 -4 14 -8 11 -4 -2 -14 5 -22 17 -12 20 -12 21
4 8 14 -12 16 -12 10 3 -4 11 -14 16 -26 13 -16 -5 -17 -3 -7 9 7 8 8 14 3 13
-21 -4 -34 2 -34 16 0 9 -9 15 -22 15 -19 0 -20 2 -8 10 13 9 13 10 0 11 -8 1
-19 1 -25 -1 -5 -1 -4 4 3 11 18 19 15 29 -8 29 -11 0 -29 9 -40 20 -22 22
-27 35 -8 24 7 -4 8 -3 4 5 -6 8 -12 9 -20 2 -16 -14 -29 -2 -16 14 8 9 4 12
-15 9 -23 -2 -24 0 -13 14 10 12 10 14 1 8 -9 -5 -13 -1 -14 11 0 12 -2 13 -6
5 -4 -9 -18 0 -46 30 -22 23 -34 34 -26 23 13 -18 13 -19 -3 -6 -10 7 -18 20
-18 27 0 8 -9 14 -21 14 -11 0 -17 5 -14 10 3 6 -1 10 -10 10 -9 0 -14 4 -11
9 3 5 -2 8 -12 7 -9 0 -16 4 -15 10 1 6 -9 16 -23 23 -19 8 -24 8 -18 0 4 -8
3 -9 -4 -5 -7 4 -12 13 -12 21 0 7 -7 16 -16 19 -12 5 -14 3 -8 -7 5 -7 2 -5
-7 4 -12 13 -19 15 -27 7 -9 -9 -10 -6 -7 11 4 20 2 21 -12 9 -9 -7 -14 -8
-10 -2 9 16 -19 38 -38 30 -9 -3 -14 -2 -11 2 3 4 -5 14 -17 22 -19 12 -20 11
-10 -2 10 -12 10 -15 -2 -15 -7 0 -14 3 -13 6 0 3 0 15 -1 26 -1 17 -3 18 -11
5 -8 -12 -10 -12 -10 5 0 17 -2 17 -10 5 -5 -8 -10 -10 -10 -4 0 13 -48 36
-60 29 -5 -3 -12 0 -16 6 -4 8 -3 9 4 5 7 -4 12 -2 12 3 0 15 -27 14 -33 -1
-3 -8 -6 -5 -6 6 -1 12 -6 16 -17 12 -8 -3 -12 -2 -9 4 3 6 -5 10 -19 10 -22
0 -29 8 -28 30 0 3 -15 6 -34 7 -23 1 -32 -2 -28 -10 3 -7 -4 -2 -15 11 -11
13 -24 23 -28 23 -4 1 -7 4 -6 8 1 4 -8 7 -20 8 -12 0 -16 -1 -9 -4 6 -3 10
-9 6 -14 -3 -5 -14 1 -25 13 -11 13 -19 19 -18 13 3 -22 -2 -27 -16 -15 -8 7
-15 18 -15 24 0 6 5 4 10 -4 6 -9 10 -10 10 -3 0 16 -17 26 -25 13 -3 -5 -11
-10 -16 -10 -6 0 -7 5 -3 12 5 8 2 9 -9 5 -10 -4 -17 -2 -17 5 0 7 -5 6 -15
-2 -10 -9 -15 -9 -15 -1 0 6 -9 11 -20 11 -11 0 -20 5 -20 11 0 8 -6 7 -17 -2
-15 -12 -16 -12 -10 3 4 12 2 15 -9 11 -8 -3 -22 1 -31 8 -15 12 -16 12 -10
-3 9 -24 2 -23 -28 7 -14 14 -25 22 -25 17 0 -4 5 -13 12 -20 7 -7 9 -12 5
-12 -3 0 -16 10 -28 23 -12 12 -19 16 -15 10 5 -8 1 -13 -9 -13 -10 0 -13 5
-9 13 5 7 0 6 -11 -3 -11 -9 -16 -10 -11 -2 9 15 -6 16 -22 0 -9 -9 -15 -9
-24 1 -11 10 -9 11 7 5 11 -4 17 -4 14 0 -11 12 -61 18 -54 6 3 -6 0 -7 -9 -4
-9 3 -13 11 -9 18 4 7 1 7 -9 -1 -8 -7 -18 -10 -21 -6 -4 3 -7 0 -7 -8 0 -8
-6 -5 -15 8 -15 21 -60 29 -47 8 3 -5 -2 -4 -11 4 -11 9 -17 10 -17 2 0 -6 -5
-11 -11 -11 -5 0 -8 4 -5 9 8 12 -54 9 -73 -3 -9 -6 -12 -5 -7 2 8 13 -91 11
-113 -2 -9 -6 -12 -5 -7 2 8 13 -91 11 -113 -2 -10 -6 -12 -5 -7 3 6 9 -2 11
-30 9 -26 -2 -38 -7 -36 -16 1 -8 -2 -11 -8 -7 -6 3 -8 10 -6 14 3 4 -4 8 -15
8 -11 1 -17 -2 -14 -8 4 -5 -1 -9 -10 -9 -10 0 -13 -5 -9 -12 5 -9 2 -9 -9 1
-9 7 -17 10 -17 5 0 -4 -7 1 -15 12 -11 14 -14 15 -9 3z m-546 -149 c0 -5 -5
-10 -11 -10 -5 0 -7 5 -4 10 3 6 8 10 11 10 2 0 4 -4 4 -10z m2820 -835 c7 -9
8 -15 2 -15 -5 0 -12 7 -16 15 -3 8 -4 15 -2 15 2 0 9 -7 16 -15z m-2746 -593
c3 -5 -1 -9 -9 -9 -8 0 -12 4 -9 9 3 4 7 8 9 8 2 0 6 -4 9 -8z m-104 -76 c0
-2 -7 -9 -15 -16 -13 -11 -14 -10 -9 4 5 14 24 23 24 12z m1750 -206 c0 -5 -2
-10 -4 -10 -3 0 -8 5 -11 10 -3 6 -1 10 4 10 6 0 11 -4 11 -10z m140 -30 c0
-5 -5 -10 -11 -10 -5 0 -7 5 -4 10 3 6 8 10 11 10 2 0 4 -4 4 -10z m1380 -54
c0 -3 -4 -8 -10 -11 -5 -3 -10 -1 -10 4 0 6 5 11 10 11 6 0 10 -2 10 -4z
m-2032 -348 c2 -5 8 -8 13 -8 6 0 7 4 4 10 -3 6 1 7 10 3 13 -4 14 -8 4 -14
-11 -6 -10 -9 4 -15 9 -3 14 -10 11 -15 -3 -5 2 -6 10 -3 9 3 16 2 16 -4 0 -6
-6 -13 -12 -15 -7 -3 -2 -6 12 -6 18 -1 21 -4 12 -10 -10 -6 -9 -10 7 -14 12
-3 21 -11 21 -19 0 -10 -3 -9 -10 2 -6 9 -10 10 -10 3 0 -6 5 -15 10 -18 6 -3
10 -11 10 -16 0 -6 -6 -7 -12 -3 -9 5 -9 2 1 -9 10 -13 11 -20 2 -31 -9 -11
-9 -16 0 -22 8 -5 10 -3 4 7 -5 8 -4 11 0 6 10 -9 15 -46 6 -45 -19 2 -24 -4
-11 -12 13 -8 12 -10 -2 -10 -10 0 -17 -3 -17 -7 4 -23 -2 -43 -11 -38 -5 3
-10 2 -10 -4 0 -6 -7 -7 -17 -4 -10 4 -14 2 -10 -4 4 -6 -2 -22 -14 -34 -11
-13 -18 -18 -14 -11 7 14 -4 16 -25 2 -12 -8 -12 -10 -1 -10 8 0 11 -3 8 -7
-11 -11 -61 -10 -76 1 -11 8 -13 8 -7 -1 4 -8 1 -13 -9 -13 -10 0 -13 5 -9 13
5 7 0 6 -11 -3 -10 -8 -16 -10 -12 -4 3 6 -5 16 -21 23 l-27 13 20 -23 c16
-19 14 -18 -13 4 -19 15 -39 24 -45 20 -7 -4 -5 2 3 12 9 11 10 16 3 11 -8 -4
-13 -2 -13 5 0 9 -4 9 -15 -1 -12 -10 -14 -8 -10 8 6 33 -66 50 -119 27 -13
-6 -17 -5 -13 2 9 15 -20 10 -35 -5 -8 -8 -15 -9 -25 -1 -7 7 -13 8 -13 3 0
-5 -5 -2 -10 6 -8 13 -11 13 -22 1 -11 -11 -11 -13 1 -6 10 6 12 4 6 -5 -6
-10 -11 -9 -22 6 -14 19 -15 19 -29 0 -14 -20 -14 -20 -14 0 0 16 -2 17 -10 4
-9 -13 -10 -13 -10 0 0 13 -1 13 -10 0 -8 -13 -10 -13 -10 -1 0 11 -4 10 -13
-4 -11 -14 -16 -15 -22 -5 -5 9 -4 11 3 6 7 -4 12 -2 12 3 0 14 -13 14 -28 -1
-9 -9 -12 -9 -12 0 0 7 -5 12 -11 12 -5 0 -8 -4 -4 -9 3 -5 1 -13 -5 -16 -6
-4 -9 -2 -8 3 2 6 -1 10 -7 10 -5 0 -9 -5 -7 -12 1 -6 -4 -3 -12 7 -9 12 -16
14 -21 8 -3 -6 -11 -11 -16 -11 -6 0 -8 4 -5 8 3 5 -12 8 -32 7 -26 -1 -36 -6
-34 -16 1 -9 -2 -8 -12 4 -9 12 -16 14 -21 7 -3 -5 -10 -8 -15 -5 -5 3 -29 8
-52 10 -31 3 -39 2 -28 -6 11 -7 4 -8 -25 -4 -80 13 -105 14 -105 4 0 -6 5 -7
12 -3 7 5 8 3 3 -5 -5 -9 -11 -9 -17 -3 -6 6 -17 8 -26 5 -11 -5 -13 -3 -7 8
8 12 6 12 -8 0 -14 -11 -17 -11 -17 0 0 8 -6 5 -15 -7 -10 -13 -13 -14 -10 -3
4 10 0 16 -9 16 -8 0 -13 -4 -10 -8 2 -4 -1 -11 -8 -15 -7 -4 -10 -4 -6 1 11
11 -12 36 -25 28 -6 -3 -7 -1 -3 6 4 6 12 9 17 6 5 -4 9 -2 9 4 0 5 3 18 6 28
5 15 4 15 -5 3 -7 -9 -11 -10 -11 -3 0 6 5 15 10 18 6 4 8 11 5 16 -4 5 2 6
12 2 16 -6 16 -5 5 10 -12 14 -11 16 8 12 18 -3 20 -2 10 10 -12 14 -7 20 14
16 5 -1 4 5 -3 13 -11 13 -9 14 16 10 15 -2 23 -1 18 3 -17 12 -12 36 8 39 9
1 15 -1 13 -5 -8 -13 31 -6 48 8 14 12 16 12 11 0 -4 -10 2 -15 15 -16 11 -1
20 3 20 8 0 6 -5 7 -12 3 -7 -5 -8 -3 -3 5 5 9 11 9 17 3 6 -6 17 -8 26 -5 11
5 13 2 7 -8 -6 -11 -5 -11 5 -2 7 6 19 9 28 6 10 -4 13 -2 8 5 -5 8 -2 10 8 6
9 -3 13 -11 9 -18 -3 -6 -1 -6 8 2 15 14 33 17 25 4 -3 -5 1 -9 9 -9 8 0 12 4
9 9 -3 4 2 8 11 8 9 0 14 -4 10 -9 -3 -5 0 -13 6 -17 8 -4 9 -3 5 4 -4 7 -2
12 4 12 6 0 8 5 4 13 -6 9 -4 9 8 -1 8 -7 24 -9 33 -5 11 4 16 2 12 -3 -8 -14
39 -10 57 5 12 10 16 9 25 -6 6 -10 11 -12 11 -5 0 6 5 12 11 12 5 0 7 -5 3
-12 -5 -7 -3 -8 7 -3 17 11 161 16 155 6 -3 -4 1 -8 9 -8 8 0 12 5 8 10 -3 5
4 6 17 2 15 -5 20 -4 16 4 -5 7 -1 9 8 5 9 -3 13 -11 9 -18 -3 -6 -1 -6 8 2
15 14 33 17 25 4 -3 -5 1 -9 9 -9 8 0 12 4 9 9 -3 4 2 8 11 8 9 0 14 -4 11 -9
-4 -5 3 -7 14 -4 11 3 23 10 26 15 3 5 15 1 25 -8 18 -16 19 -16 13 -1 -3 10
-1 17 6 17 6 0 8 4 5 10 -3 5 0 7 8 4 8 -3 18 0 23 7 4 8 3 10 -4 5 -7 -4 -12
-2 -12 5 0 7 8 9 21 6 15 -4 18 -2 10 7 -8 10 -3 12 24 11 25 0 31 2 24 11 -7
8 -6 14 1 19 5 3 10 0 10 -7 0 -10 2 -10 9 1 5 8 15 12 22 9 8 -3 23 -2 34 2
18 6 76 -16 83 -32z m-1438 -168 c0 -5 -5 -10 -11 -10 -5 0 -7 5 -4 10 3 6 8
10 11 10 2 0 4 -4 4 -10z m-800 -109 c0 -5 -7 -12 -16 -15 -14 -5 -15 -4 -4 9
14 17 20 19 20 6z m320 0 c0 -5 -7 -12 -16 -15 -14 -5 -15 -4 -4 9 14 17 20
19 20 6z m1590 -5 c0 -2 -7 -7 -16 -10 -8 -3 -12 -2 -9 4 6 10 25 14 25 6z
m2445 -276 c-3 -5 -12 -10 -18 -10 -7 0 -6 4 3 10 19 12 23 12 15 0z m-2321
-508 c3 -5 -1 -9 -9 -9 -8 0 -12 4 -9 9 3 4 7 8 9 8 2 0 6 -4 9 -8z m520 0 c3
-5 -1 -9 -9 -9 -8 0 -12 4 -9 9 3 4 7 8 9 8 2 0 6 -4 9 -8z m-234 -477 c0 -5
5 -3 10 5 8 13 12 12 27 -4 17 -19 17 -19 -2 -5 -18 13 -19 12 -7 -2 7 -10 21
-15 31 -12 10 2 25 -3 35 -12 12 -12 16 -13 17 -3 0 7 5 3 11 -9 6 -13 18 -25
27 -28 9 -3 17 -14 18 -25 1 -13 -2 -18 -9 -14 -7 4 -8 2 -4 -4 4 -6 14 -8 24
-5 15 6 15 4 -2 -15 -18 -21 -18 -21 2 -17 16 3 19 -1 14 -17 -4 -16 -2 -19 9
-13 12 7 12 6 1 -7 -7 -9 -11 -27 -8 -41 3 -19 1 -24 -10 -20 -8 3 -14 0 -14
-6 0 -6 5 -11 11 -11 5 0 7 -5 4 -10 -4 -6 -12 -8 -18 -4 -7 3 -3 -2 7 -10 17
-14 17 -16 3 -16 -11 0 -14 -5 -10 -16 4 -10 -2 -17 -16 -21 -12 -3 -20 -11
-18 -17 3 -8 -6 -11 -24 -10 -20 1 -35 -5 -48 -22 -18 -23 -38 -34 -26 -14 3
6 1 10 -4 10 -6 0 -11 -8 -12 -17 -1 -12 -4 -10 -9 7 -6 19 -8 20 -9 6 -1 -16
-3 -17 -18 -5 -11 9 -14 10 -9 2 5 -9 2 -11 -8 -7 -9 3 -13 11 -9 17 4 6 1 7
-8 1 -26 -16 -39 -12 -60 18 -17 23 -24 27 -30 16 -6 -9 -9 -7 -9 8 0 12 -7
25 -16 28 -8 3 -13 10 -9 15 3 6 -6 6 -25 1 -16 -5 -30 -6 -30 -2 0 4 -5 0
-11 -8 -9 -13 -10 -13 -6 0 2 8 9 15 15 15 5 0 14 3 18 7 11 12 -37 0 -52 -13
-12 -9 -13 -9 -9 2 6 17 -31 24 -40 8 -3 -5 1 -6 9 -3 10 4 16 1 16 -7 0 -7
-3 -9 -7 -6 -3 4 -13 1 -21 -6 -13 -9 -14 -9 -8 1 5 9 -3 12 -31 12 -23 0 -33
3 -25 8 8 5 -3 8 -27 8 -21 -1 -37 -4 -35 -8 6 -9 -18 -16 -33 -10 -7 2 -11 7
-8 12 4 7 -2 7 -87 -8 -33 -6 -45 -5 -42 3 5 13 -33 18 -41 4 -3 -5 1 -6 9 -3
10 4 16 1 16 -7 0 -7 -3 -9 -7 -6 -3 4 -13 1 -21 -6 -10 -7 -13 -8 -9 -1 11
19 -32 24 -49 6 -15 -15 -16 -14 -10 6 6 17 4 21 -7 16 -8 -3 -18 0 -23 7 -5
8 -3 10 6 4 10 -6 12 -4 6 10 -6 16 -4 16 11 4 11 -9 14 -9 9 -2 -4 7 -2 23 4
35 11 22 10 22 -4 4 -9 -11 -16 -15 -16 -8 0 6 9 17 20 25 12 8 20 18 19 23
-4 22 2 33 16 28 8 -4 15 -1 15 5 0 6 -5 11 -10 11 -6 0 -5 6 2 14 7 8 16 12
19 10 4 -2 13 4 20 13 12 14 11 15 -11 9 -22 -6 -22 -5 -7 4 15 9 23 8 39 -7
12 -10 18 -12 13 -4 -6 11 -4 13 7 8 9 -3 21 0 28 6 10 9 11 9 6 0 -5 -8 -1
-13 9 -13 9 0 14 4 10 9 -3 5 -1 13 5 16 6 4 9 1 8 -7 -2 -8 4 -12 15 -10 10
2 26 -3 35 -10 12 -10 14 -10 8 0 -4 6 -4 12 1 13 45 6 63 4 63 -5 0 -6 5 -5
12 2 17 17 28 15 28 -5 0 -15 2 -16 10 -3 13 21 32 19 53 -5 10 -11 16 -14 12
-7 -6 11 6 16 33 13 6 -1 20 2 29 8 13 7 22 4 35 -11 10 -12 18 -17 18 -12 0
6 -6 16 -12 23 -7 7 -8 12 -3 11 23 -5 33 1 38 21 4 15 11 20 23 15 12 -5 15
-2 10 9 -4 13 -2 14 14 5 16 -9 20 -8 20 5 0 10 5 13 12 9 7 -5 9 -2 6 8 -4 8
0 15 8 15 7 0 11 -3 9 -7 -2 -3 5 -6 15 -6 12 0 16 4 10 11 -6 7 -2 11 11 11
10 0 19 -5 19 -11z m-247 -80 c-3 -9 -8 -14 -10 -11 -3 3 -2 9 2 15 9 16 15
13 8 -4z m-3239 -133 c3 -5 -1 -9 -9 -9 -8 0 -15 4 -15 9 0 4 4 8 9 8 6 0 12
-4 15 -8z m536 -92 c0 -5 -2 -10 -4 -10 -3 0 -8 5 -11 10 -3 6 -1 10 4 10 6 0
11 -4 11 -10z m720 0 c0 -5 -2 -10 -4 -10 -3 0 -8 5 -11 10 -3 6 -1 10 4 10 6
0 11 -4 11 -10z m240 0 c0 -5 -2 -10 -4 -10 -3 0 -8 5 -11 10 -3 6 -1 10 4 10
6 0 11 -4 11 -10z m720 0 c0 -5 -2 -10 -4 -10 -3 0 -8 5 -11 10 -3 6 -1 10 4
10 6 0 11 -4 11 -10z m129 -4 c11 -14 6 -15 -27 -7 -4 1 8 21 12 21 2 0 9 -6
15 -14z m631 -2 c0 -8 -5 -12 -10 -9 -6 4 -8 11 -5 16 9 14 15 11 15 -7z m109
-7 c0 -8 -2 -8 -6 1 -4 10 -8 10 -21 0 -15 -12 -16 -11 -3 4 14 19 32 15 30
-5z m491 -66 c0 -5 -7 -12 -16 -15 -14 -5 -15 -4 -4 9 14 17 20 19 20 6z
m-3765 -69 c-3 -3 -11 0 -18 7 -9 10 -8 11 6 5 10 -3 15 -9 12 -12z m520 -91
c3 -5 2 -12 -3 -15 -5 -3 -9 1 -9 9 0 17 3 19 12 6z m260 -1 c-3 -5 -1 -10 5
-10 6 0 8 -5 4 -11 -4 -7 -10 -7 -16 -1 -9 9 -3 32 8 32 3 0 2 -4 -1 -10z
m160 0 c-3 -5 -1 -10 5 -10 6 0 8 -5 4 -11 -4 -7 -10 -7 -16 -1 -9 9 -3 32 8
32 3 0 2 -4 -1 -10z m240 0 c-3 -5 -1 -10 5 -10 6 0 8 -5 4 -11 -4 -7 -10 -7
-16 -1 -9 9 -3 32 8 32 3 0 2 -4 -1 -10z m760 -320 c3 -5 1 -10 -4 -10 -6 0
-11 5 -11 10 0 6 2 10 4 10 3 0 8 -4 11 -10z m745 -600 c0 -5 -2 -10 -4 -10
-3 0 -8 5 -11 10 -3 6 -1 10 4 10 6 0 11 -4 11 -10z m144 -96 c3 -8 2 -12 -4
-9 -6 3 -10 10 -10 16 0 14 7 11 14 -7z m736 -394 c0 -5 -2 -10 -4 -10 -3 0
-8 5 -11 10 -3 6 -1 10 4 10 6 0 11 -4 11 -10z"/>
<path d="M10807 8977 c-3 -8 1 -14 8 -14 7 0 11 6 8 14 -3 7 -6 13 -8 13 -2 0
-5 -6 -8 -13z"/>
<path d="M10846 7408 c3 -5 10 -6 15 -3 13 9 11 12 -6 12 -8 0 -12 -4 -9 -9z"/>
<path d="M10226 11628 c3 -5 10 -6 15 -3 13 9 11 12 -6 12 -8 0 -12 -4 -9 -9z"/>
<path d="M10798 11633 c7 -3 16 -2 19 1 4 3 -2 6 -13 5 -11 0 -14 -3 -6 -6z"/>
<path d="M9875 11569 c-4 -6 -5 -12 -2 -15 2 -3 7 2 10 11 7 17 1 20 -8 4z"/>
<path d="M9051 10527 c-6 -8 -8 -16 -5 -19 2 -3 -2 -8 -10 -11 -9 -4 -15 -3
-15 1 3 19 -2 25 -11 12 -7 -12 -12 -11 -31 5 -12 11 -19 14 -15 8 5 -9 -1
-13 -18 -13 -14 0 -26 -6 -26 -12 0 -8 -5 -6 -11 4 -5 9 -15 15 -22 13 -40
-12 -68 -15 -63 -6 11 17 -10 21 -30 5 -18 -14 -17 -14 6 -4 24 11 24 10 6 -4
-26 -21 -36 -20 -36 4 0 17 -2 19 -14 8 -8 -7 -11 -17 -8 -23 7 -11 -29 15
-41 30 -4 6 -7 3 -5 -7 2 -9 -1 -17 -7 -17 -5 -1 -10 3 -10 8 0 5 -4 13 -9 18
-5 5 -6 3 -2 -4 4 -7 3 -13 -1 -13 -5 0 -15 6 -22 13 -11 10 -13 10 -7 0 4 -7
2 -13 -4 -13 -6 0 -8 -5 -4 -12 4 -7 3 -8 -5 -4 -6 4 -9 11 -6 16 3 5 0 12 -6
16 -8 4 -9 3 -5 -4 8 -13 9 -13 -54 -16 -30 -2 -52 3 -64 13 -14 12 -17 12
-11 2 6 -10 4 -13 -6 -9 -8 3 -23 0 -34 -8 -10 -8 -14 -14 -9 -14 6 0 15 5 21
11 8 8 13 8 18 0 3 -6 3 -11 -2 -10 -12 3 -58 -17 -55 -25 6 -16 1 -27 -10
-20 -8 5 -9 2 -5 -10 4 -10 3 -15 -3 -11 -6 3 -10 -1 -10 -9 0 -9 -3 -15 -7
-15 -20 3 -26 -2 -13 -11 9 -6 11 -10 3 -10 -7 0 -10 -7 -7 -15 4 -8 1 -15 -6
-15 -6 0 -9 -4 -6 -9 3 -5 -1 -12 -10 -15 -14 -5 -14 -9 -3 -23 10 -12 10 -14
2 -9 -9 4 -13 1 -13 -9 0 -11 -5 -15 -15 -11 -8 3 -14 2 -14 -2 3 -20 -3 -40
-17 -58 -8 -10 -12 -13 -8 -5 5 10 3 12 -5 7 -9 -6 -9 -11 1 -24 8 -10 9 -13
1 -9 -13 8 -28 -27 -18 -43 3 -5 -2 -10 -12 -11 -11 0 -13 -3 -5 -6 10 -4 9
-8 -4 -17 -13 -10 -14 -15 -4 -21 9 -6 11 -4 5 5 -5 8 -4 11 3 6 6 -3 9 -15 7
-26 -5 -25 26 -44 45 -27 10 9 11 9 6 0 -3 -6 -2 -15 4 -18 6 -4 9 -2 8 3 -2
6 1 10 6 10 5 0 13 6 17 14 7 10 9 9 9 -3 0 -9 7 -20 16 -23 25 -10 29 -7 9 7
-11 9 -14 16 -7 21 6 3 17 -1 25 -9 17 -17 31 -20 22 -6 -3 5 0 13 6 17 7 4 9
3 5 -4 -3 -6 -2 -13 4 -17 5 -3 10 2 10 12 0 15 2 15 10 3 6 -9 5 -20 -3 -30
-11 -13 -10 -13 5 -1 10 7 15 17 12 22 -3 5 0 9 5 9 6 0 11 -4 11 -9 0 -5 7
-12 16 -15 14 -5 15 -4 4 9 -11 13 -10 14 5 9 14 -6 16 -4 10 6 -5 9 -4 11 4
6 6 -4 8 -13 4 -19 -4 -7 2 -5 12 3 10 8 16 10 12 3 -4 -6 -3 -15 3 -18 6 -4
9 -3 8 2 -2 4 1 9 6 10 5 1 13 7 17 15 7 10 9 9 9 -3 0 -9 7 -20 16 -23 25
-10 29 -7 9 7 -12 9 -14 16 -7 21 6 3 21 -4 33 -16 12 -13 20 -18 17 -13 -3 6
0 15 7 22 10 10 14 9 19 -2 6 -16 59 -10 65 7 2 6 10 0 18 -13 8 -13 12 -17 9
-7 -4 13 1 15 25 11 19 -3 29 0 29 9 0 8 4 7 10 -4 11 -18 62 -15 69 4 2 6 10
0 18 -13 8 -13 12 -17 10 -8 -3 9 1 16 9 16 7 0 11 -3 9 -7 -2 -3 5 -6 15 -6
14 0 16 3 8 13 -14 17 -3 17 14 -1 12 -11 17 -11 34 2 16 12 16 14 2 9 -15 -5
-16 -4 -6 13 7 10 17 16 23 12 5 -3 3 3 -5 13 -9 11 -10 16 -2 11 7 -4 12 -2
12 4 0 6 5 8 13 4 8 -5 7 -2 -2 9 -12 15 -12 17 4 11 14 -6 16 -4 10 6 -6 10
-4 12 11 6 15 -6 17 -5 6 6 -10 10 -8 16 10 31 13 10 16 15 8 11 -13 -7 -13
-6 0 12 8 10 20 22 25 26 6 5 5 8 -3 8 -7 0 -10 5 -7 10 4 6 12 7 18 3 7 -4 5
2 -3 13 -8 10 -11 16 -6 12 13 -11 49 40 42 58 -3 8 -2 13 3 10 9 -6 26 22 22
37 -1 5 4 5 10 1 8 -5 10 -2 6 9 -3 8 1 21 9 27 8 7 14 9 14 4 0 -5 4 -2 9 5
6 9 6 22 -1 34 -7 13 -7 17 0 13 6 -3 13 -2 17 4 3 5 1 10 -5 10 -6 0 -8 5 -4
13 5 7 0 6 -11 -3 -17 -14 -17 -13 -11 10 4 14 4 20 -1 14 -4 -6 -16 -10 -25
-9 -11 2 -15 -2 -11 -13 3 -11 -4 -8 -18 8 -14 16 -20 19 -16 8 5 -15 2 -16
-20 -7 -22 8 -24 7 -19 -8 4 -12 -1 -10 -16 7 -12 14 -19 18 -15 8 3 -10 0
-19 -9 -22 -9 -3 -12 -1 -9 4 3 6 1 10 -6 10 -8 0 -8 4 1 15 7 8 10 15 7 15
-2 0 -10 -6 -16 -13z m-386 -27 c3 -5 1 -10 -4 -10 -6 0 -11 5 -11 10 0 6 2
10 4 10 3 0 8 -4 11 -10z m230 0 c-3 -5 -12 -10 -18 -10 -7 0 -6 4 3 10 19 12
23 12 15 0z m255 -195 c-7 -9 -15 -13 -17 -11 -6 6 20 36 26 30 2 -2 -2 -10
-9 -19z"/>
<path d="M8515 10520 c3 -5 8 -10 11 -10 2 0 4 5 4 10 0 6 -5 10 -11 10 -5 0
-7 -4 -4 -10z"/>
<path d="M12620 10406 c0 -2 7 -9 15 -16 13 -11 14 -10 9 4 -5 14 -24 23 -24
12z"/>
<path d="M8220 10059 c0 -5 5 -7 10 -4 6 3 10 8 10 11 0 2 -4 4 -10 4 -5 0
-10 -5 -10 -11z"/>
<path d="M11295 10049 c-4 -6 -4 -13 -1 -16 3 -4 6 -1 6 6 0 7 5 9 12 5 7 -4
8 -3 4 4 -9 15 -13 15 -21 1z"/>
<path d="M9665 10029 c-4 -6 -4 -13 -1 -16 3 -4 6 -1 6 6 0 7 5 9 12 5 7 -4 8
-3 4 4 -9 15 -13 15 -21 1z"/>
<path d="M11647 9879 c7 -7 15 -10 18 -7 3 3 -2 9 -12 12 -14 6 -15 5 -6 -5z"/>
<path d="M9366 9532 c-3 -5 1 -9 9 -9 8 0 12 4 9 9 -3 4 -7 8 -9 8 -2 0 -6 -4
-9 -8z"/>
<path d="M9305 9410 c-3 -5 -1 -10 4 -10 6 0 11 5 11 10 0 6 -2 10 -4 10 -3 0
-8 -4 -11 -10z"/>
<path d="M9246 9293 c-6 -14 -5 -15 5 -6 7 7 10 15 7 18 -3 3 -9 -2 -12 -12z"/>
<path d="M8475 9070 c-3 -5 -1 -10 4 -10 6 0 11 5 11 10 0 6 -2 10 -4 10 -3 0
-8 -4 -11 -10z"/>
<path d="M8795 9070 c-3 -5 -1 -10 4 -10 6 0 11 5 11 10 0 6 -2 10 -4 10 -3 0
-8 -4 -11 -10z"/>
<path d="M12968 8823 c7 -3 16 -2 19 1 4 3 -2 6 -13 5 -11 0 -14 -3 -6 -6z"/>
<path d="M8110 8656 c0 -2 8 -10 18 -17 15 -13 16 -12 3 4 -13 16 -21 21 -21
13z"/>
<path d="M11565 8489 c-11 -16 -1 -19 13 -3 7 8 8 14 3 14 -5 0 -13 -5 -16
-11z"/>
<path d="M8275 8470 c-3 -5 -1 -10 4 -10 6 0 11 5 11 10 0 6 -2 10 -4 10 -3 0
-8 -4 -11 -10z"/>
<path d="M8795 8470 c3 -5 8 -10 11 -10 2 0 4 5 4 10 0 6 -5 10 -11 10 -5 0
-7 -4 -4 -10z"/>
<path d="M7881 8388 c-1 -25 -17 -30 -35 -12 -15 14 -16 14 -16 0 0 -9 -3 -15
-7 -15 -20 3 -34 -2 -28 -11 3 -5 1 -10 -5 -10 -6 0 -8 -5 -4 -12 4 -7 3 -8
-5 -4 -6 4 -9 12 -5 18 3 5 -8 2 -25 -6 -17 -9 -31 -19 -31 -22 0 -3 5 -2 10
1 6 3 10 1 10 -4 0 -6 -7 -11 -16 -11 -8 0 -12 -4 -9 -10 3 -5 1 -10 -4 -10
-6 0 -10 -3 -10 -7 3 -21 -2 -34 -11 -28 -6 4 -7 11 -4 17 4 6 2 8 -4 4 -7 -4
-6 -15 4 -34 12 -23 12 -28 -1 -38 -10 -8 -11 -14 -3 -22 8 -8 4 -10 -13 -6
-13 2 -18 1 -11 -2 10 -5 10 -9 0 -22 -11 -13 -11 -14 1 -7 11 6 13 3 8 -14
-3 -14 0 -24 8 -27 7 -3 16 -12 19 -20 4 -10 2 -13 -7 -8 -9 6 -9 4 1 -8 10
-13 10 -17 0 -21 -11 -4 -10 -6 0 -6 8 -1 10 -6 6 -13 -5 -9 -2 -8 9 1 10 8
20 11 24 7 3 -3 1 -6 -5 -6 -14 0 -12 -20 5 -37 14 -15 27 -17 18 -3 -10 16 1
11 16 -7 12 -15 12 -16 -1 -8 -9 5 -8 0 4 -13 19 -21 32 -30 22 -14 -2 4 4 8
15 8 12 0 15 -4 9 -10 -6 -6 -10 -15 -10 -20 0 -6 5 -4 10 4 9 13 11 13 20 0
8 -13 10 -12 11 5 1 17 2 16 9 -5 7 -21 8 -22 9 -5 1 17 3 17 11 5 6 -10 10
-11 10 -2 0 6 5 12 11 12 5 0 8 -4 5 -9 -3 -5 5 -8 19 -8 14 0 22 3 19 8 -3 5
5 5 18 0 23 -8 60 -1 59 12 -2 19 0 21 9 7 8 -13 10 -12 10 3 0 10 4 16 9 13
5 -3 15 2 22 12 13 15 12 16 -3 4 -11 -9 -18 -10 -23 -2 -4 6 -3 9 2 8 4 -1
18 3 29 10 12 6 25 8 29 4 5 -4 5 1 2 11 -4 9 -2 17 3 17 6 0 10 -4 10 -10 0
-5 7 -7 15 -4 8 4 23 0 32 -7 12 -10 15 -10 9 -1 -4 7 -2 12 6 13 7 0 25 2 40
3 14 1 24 -2 22 -6 -3 -4 0 -8 5 -8 6 0 11 5 11 12 0 6 7 3 15 -8 10 -13 13
-14 10 -3 -4 11 0 15 14 14 11 -1 24 -5 28 -10 5 -4 1 -5 -7 0 -8 5 -12 4 -7
0 13 -15 36 -14 30 1 -7 19 0 18 25 -5 22 -18 31 -37 12 -26 -5 3 -7 0 -4 -8
3 -8 15 -17 26 -20 13 -4 19 -11 15 -21 -3 -8 1 -17 10 -20 9 -4 13 -13 9 -22
-4 -11 -2 -15 7 -11 8 3 14 -5 15 -22 1 -21 0 -23 -9 -11 -9 13 -10 13 -6 0 2
-8 12 -14 22 -12 10 2 14 -1 10 -7 -3 -6 -1 -11 5 -11 6 0 8 -4 5 -10 -3 -5 1
-22 9 -37 8 -16 15 -24 16 -20 1 19 30 -24 32 -47 2 -25 2 -25 23 -6 26 25 42
26 24 3 -13 -17 -13 -17 13 0 15 9 30 17 34 17 3 0 0 -8 -7 -17 -13 -16 -11
-16 15 1 16 10 26 14 22 8 -3 -5 5 -12 18 -14 17 -4 23 -1 19 9 -3 7 0 13 6
13 11 0 15 -15 11 -35 -1 -5 8 -1 20 10 21 19 90 29 90 12 0 -4 14 -6 30 -5
23 2 29 6 25 18 -3 8 3 4 13 -9 13 -16 21 -20 26 -12 6 9 11 9 23 -1 14 -11
15 -10 10 12 -4 14 -4 19 -1 12 3 -6 11 -9 17 -5 6 4 8 0 4 -10 -3 -9 -1 -19
5 -23 7 -5 8 -2 3 6 -6 10 -4 12 8 7 9 -3 19 -1 23 5 4 6 3 8 -4 4 -6 -3 -13
-3 -15 1 -3 5 15 8 39 9 30 0 41 -3 34 -11 -6 -7 -3 -11 10 -11 10 0 17 4 14
7 -2 4 0 10 6 14 5 3 10 1 10 -5 0 -7 7 -10 15 -7 8 4 17 2 20 -3 4 -6 14 -6
27 1 17 9 18 13 7 20 -8 5 -10 9 -5 9 6 0 21 -10 34 -22 14 -13 22 -17 18 -10
-4 6 -4 12 1 13 4 0 16 2 26 4 14 3 17 -1 13 -13 -4 -10 3 -7 16 8 14 16 19
19 15 8 -9 -25 8 -22 34 5 24 24 16 4 -10 -27 -16 -19 -15 -19 10 -2 15 9 37
19 49 21 19 4 21 1 17 -18 -5 -20 -5 -20 7 -5 10 14 15 15 26 5 10 -9 11 -9 6
1 -4 6 -2 12 4 12 6 0 8 5 4 12 -5 7 -3 8 5 4 7 -5 10 -14 7 -22 -3 -7 0 -16
6 -20 7 -5 8 -2 3 6 -6 10 -4 12 8 7 9 -3 19 -1 23 5 4 6 3 8 -4 4 -6 -3 -13
-3 -15 1 -3 5 15 8 39 9 30 0 41 -3 34 -11 -6 -7 -3 -11 10 -11 10 0 17 4 14
7 -2 4 0 10 6 14 5 3 10 1 10 -5 0 -7 7 -10 15 -7 8 4 17 2 20 -3 4 -6 14 -6
27 1 17 9 18 13 7 20 -8 5 -10 9 -5 9 6 0 21 -10 34 -22 14 -13 22 -17 17 -9
-6 11 -4 13 7 8 9 -3 21 0 28 6 10 10 12 8 6 -7 -5 -16 -4 -17 8 -7 8 7 20 10
25 6 7 -3 8 0 5 9 -4 10 -1 16 7 16 11 0 11 3 -1 10 -11 7 -11 10 -2 10 7 0
10 4 7 10 -3 5 0 7 8 4 8 -3 18 0 23 7 4 7 3 10 -3 6 -6 -4 -13 0 -16 8 -4 10
-1 12 11 8 15 -6 15 -5 3 10 -7 9 -9 17 -4 17 5 0 18 7 29 16 10 8 12 13 4 9
-10 -4 -10 -2 2 8 14 11 15 16 5 26 -9 10 -8 11 7 5 16 -6 18 -4 13 11 -6 14
-5 16 7 6 11 -9 13 -6 11 18 -2 20 2 28 10 25 6 -3 12 2 12 10 0 8 -4 13 -8
10 -4 -2 -11 0 -14 6 -4 6 -3 10 2 9 4 -1 16 -1 27 0 13 1 16 4 8 14 -7 8 -6
16 3 24 7 6 15 10 18 7 2 -3 7 2 10 10 4 11 1 13 -11 10 -9 -3 -6 2 8 10 16
10 20 16 10 16 -9 1 -6 5 8 10 15 6 22 18 22 35 0 14 5 25 10 25 6 0 10 5 10
11 0 5 -6 7 -12 3 -9 -5 -8 -2 1 9 11 14 17 15 30 5 14 -12 15 -11 1 6 -8 11
-15 20 -15 20 1 1 14 14 30 30 19 19 25 31 17 34 -7 2 -10 8 -6 13 7 12 -18 7
-29 -6 -5 -6 -7 -3 -3 7 3 12 -2 22 -17 29 -19 11 -21 10 -9 -3 8 -10 9 -19 4
-22 -6 -3 -12 1 -16 9 -3 8 -12 12 -21 9 -8 -4 -15 -1 -15 7 0 7 -3 9 -6 6 -4
-4 -1 -13 6 -22 11 -13 10 -14 -4 -9 -9 3 -16 11 -16 18 0 6 -5 4 -10 -4 -8
-13 -10 -13 -10 -1 0 11 -4 9 -15 -5 -13 -18 -14 -18 -9 6 l5 25 -14 -24 -15
-24 -6 21 c-7 21 -26 22 -26 1 0 -6 5 -7 12 -3 7 5 8 3 3 -6 -6 -10 -12 -7
-27 11 -15 20 -17 21 -11 4 6 -17 5 -18 -9 -7 -11 9 -18 10 -23 2 -3 -5 -11
-10 -17 -10 -6 0 -5 7 3 18 13 16 13 16 -5 2 -19 -15 -69 -23 -60 -9 2 4 -1
11 -7 15 -7 4 -9 3 -5 -4 3 -6 2 -13 -4 -17 -5 -3 -10 -2 -10 3 0 6 -7 13 -16
16 -14 5 -15 4 -5 -7 9 -11 7 -17 -6 -28 -16 -13 -17 -12 -5 2 10 14 10 18 -3
23 -9 3 -13 2 -10 -3 3 -5 0 -13 -6 -17 -7 -4 -9 -3 -6 2 3 6 2 16 -4 24 -7
12 -9 11 -9 -5 0 -11 -4 -15 -8 -10 -11 16 -46 13 -54 -5 -5 -12 -7 -12 -7 3
-1 9 -6 17 -12 17 -5 0 -8 -4 -4 -9 7 -12 -26 -6 -54 9 -12 6 -21 7 -20 3 3
-20 -2 -27 -11 -13 -9 13 -10 13 -10 0 0 -13 -1 -13 -10 0 -7 11 -10 11 -10 2
0 -7 -4 -11 -10 -7 -5 3 -7 13 -4 23 5 14 4 14 -4 2 -6 -8 -9 -17 -6 -21 2 -4
-4 -13 -14 -20 -15 -13 -16 -12 -3 4 9 12 10 17 2 17 -7 0 -9 5 -5 12 4 7 3 8
-5 4 -6 -4 -9 -11 -6 -16 3 -5 1 -12 -5 -15 -6 -4 -10 -3 -9 2 4 22 -2 25 -16
7 -10 -13 -13 -14 -10 -3 4 10 0 16 -9 16 -8 0 -13 -4 -10 -9 3 -4 0 -8 -5 -8
-6 0 -11 4 -11 9 0 14 -45 7 -52 -9 -5 -12 -7 -12 -7 3 -1 9 -6 17 -12 17 -5
0 -8 -4 -4 -9 7 -12 -26 -6 -54 9 -12 6 -21 7 -20 3 3 -20 -2 -27 -11 -13 -9
13 -10 13 -10 0 0 -13 -1 -13 -10 0 -7 11 -10 11 -10 2 0 -7 -4 -11 -10 -7 -5
3 -7 13 -4 23 5 14 4 14 -4 2 -6 -8 -9 -17 -6 -21 2 -4 -4 -13 -14 -20 -15
-13 -16 -12 -3 4 9 12 10 17 2 17 -7 0 -9 5 -5 12 4 7 3 8 -5 4 -6 -4 -9 -11
-6 -16 3 -5 1 -12 -5 -15 -6 -4 -10 -3 -9 2 4 22 -2 25 -16 7 -10 -13 -13 -14
-10 -3 4 10 0 16 -9 16 -8 0 -13 -4 -10 -9 3 -4 0 -8 -5 -8 -6 0 -11 5 -11 12
0 6 -7 3 -15 -8 -13 -18 -14 -18 -9 6 l5 25 -14 -24 -15 -24 -6 21 c-7 21 -26
22 -26 1 0 -6 5 -7 12 -3 7 5 8 3 3 -6 -6 -10 -12 -7 -27 11 -15 20 -17 21
-11 4 6 -17 5 -18 -9 -7 -13 10 -18 10 -24 1 -5 -9 -11 -7 -22 7 -10 13 -13
14 -9 3 3 -9 1 -22 -5 -30 -8 -11 -9 -10 -4 3 3 12 -2 22 -17 29 -21 12 -21
11 -7 -6 14 -17 14 -17 -7 -7 -17 10 -25 9 -37 -4 -15 -14 -16 -14 -16 0 0 9
5 16 12 16 6 0 9 3 5 6 -3 3 -15 0 -26 -8 -12 -8 -18 -18 -14 -22 4 -4 -1 -4
-11 0 -18 7 -18 8 0 21 10 7 13 13 8 13 -6 0 -14 -3 -18 -7 -4 -5 -12 -9 -17
-9 -5 -1 -11 -3 -14 -4 -13 -7 -31 -5 -37 5 -5 6 -12 5 -20 -4 -11 -11 -11
-13 1 -6 9 5 12 4 7 -3 -8 -13 -36 -5 -36 10 0 5 -4 6 -10 3 -5 -3 -10 -1 -10
6 0 7 -3 9 -6 6 -4 -4 -1 -13 6 -22 11 -13 10 -14 -4 -9 -9 3 -16 11 -16 18 0
6 -5 4 -10 -4 -8 -13 -10 -13 -10 -1 0 11 -4 9 -15 -5 -13 -18 -14 -18 -9 6
l5 25 -14 -24 -15 -24 -6 21 c-7 21 -26 22 -26 1 0 -6 5 -7 12 -3 7 5 8 3 3
-6 -6 -10 -12 -7 -27 11 -15 20 -17 21 -11 4 6 -17 5 -18 -9 -7 -11 9 -18 10
-23 2 -3 -6 -11 -7 -17 -4 -6 4 -5 10 3 16 11 8 11 9 -1 5 -8 -2 -15 -9 -15
-15 0 -5 -4 -14 -8 -19 -5 -4 -8 -3 -7 2 5 24 -1 27 -15 9 -15 -18 -15 -18 -8
0 5 15 3 17 -8 10 -8 -4 -23 -7 -34 -6 -17 2 -18 1 -5 -8 13 -10 12 -11 -3 -6
-10 3 -20 6 -23 6 -2 0 -1 8 2 18 5 15 4 15 -6 -1 -8 -12 -16 -15 -23 -9 -7 5
-29 8 -50 7 -24 -1 -41 4 -44 12 -3 7 -10 10 -16 6 -6 -4 -8 0 -4 10 3 9 1 19
-5 23 -7 5 -8 2 -3 -7 7 -12 6 -12 -7 -1 -10 8 -14 20 -11 29 5 12 3 14 -8 7
-23 -14 -41 -14 -35 1 3 9 0 12 -9 9 -7 -3 -24 0 -37 7 -20 10 -21 10 -11 -2
9 -11 7 -14 -12 -14 -19 0 -21 3 -12 14 9 11 9 13 0 8 -6 -4 -14 -1 -16 5 -4
8 -6 7 -6 -4z m243 -116 c3 -5 -1 -9 -9 -9 -8 0 -12 4 -9 9 3 4 7 8 9 8 2 0 6
-4 9 -8z m610 0 c3 -5 -1 -9 -9 -9 -8 0 -12 4 -9 9 3 4 7 8 9 8 2 0 6 -4 9 -8z
m520 0 c3 -5 -1 -9 -9 -9 -8 0 -12 4 -9 9 3 4 7 8 9 8 2 0 6 -4 9 -8z m320 0
c3 -5 -1 -9 -9 -9 -8 0 -12 4 -9 9 3 4 7 8 9 8 2 0 6 -4 9 -8z m-1589 -334 c5
4 5 2 1 -5 -8 -14 -36 -6 -36 9 0 7 5 6 13 -1 8 -6 18 -7 22 -3z"/>
<path d="M10315 8290 c-3 -5 -1 -10 4 -10 6 0 11 5 11 10 0 6 -2 10 -4 10 -3
0 -8 -4 -11 -10z"/>
<path d="M13140 7920 c0 -5 5 -10 10 -10 6 0 10 5 10 10 0 6 -4 10 -10 10 -5
0 -10 -4 -10 -10z"/>
<path d="M8755 7690 c3 -5 8 -10 11 -10 2 0 4 5 4 10 0 6 -5 10 -11 10 -5 0
-7 -4 -4 -10z"/>
<path d="M8780 7696 c0 -3 9 -10 20 -16 11 -6 20 -8 20 -6 0 3 -9 10 -20 16
-11 6 -20 8 -20 6z"/>
<path d="M9176 7683 c-6 -14 -5 -15 5 -6 7 7 10 15 7 18 -3 3 -9 -2 -12 -12z"/>
<path d="M9656 7683 c-6 -14 -5 -15 5 -6 7 7 10 15 7 18 -3 3 -9 -2 -12 -12z"/>
<path d="M13233 7615 c0 -8 4 -12 9 -9 5 3 6 10 3 15 -9 13 -12 11 -12 -6z"/>
<path d="M8305 7500 c-2 -3 9 -6 25 -5 15 0 26 3 24 7 -5 8 -44 6 -49 -2z"/>
<path d="M9710 7499 c0 -5 5 -7 10 -4 6 3 10 8 10 11 0 2 -4 4 -10 4 -5 0 -10
-5 -10 -11z"/>
<path d="M8380 7236 c0 -2 8 -10 18 -17 15 -13 16 -12 3 4 -13 16 -21 21 -21
13z"/>
<path d="M8969 7137 c6 -8 9 -16 6 -19 -3 -2 2 -5 10 -5 13 0 13 3 -2 19 -19
21 -31 25 -14 5z"/>
<path d="M13140 7130 c-8 -5 -12 -12 -9 -15 4 -3 12 1 19 10 14 17 11 19 -10
5z"/>
<path d="M9096 7005 c4 -8 11 -15 16 -15 6 0 5 6 -2 15 -7 8 -14 15 -16 15 -2
0 -1 -7 2 -15z"/>
<path d="M11775 5511 c-3 -5 -2 -12 3 -15 5 -3 9 1 9 9 0 17 -3 19 -12 6z"/>
<path d="M11853 5507 c-3 -6 -1 -7 5 -3 5 3 12 1 14 -6 3 -8 6 -7 10 3 7 17
-19 22 -29 6z"/>
</g>
</svg>
